<svg version="1.1" viewBox="0.0 0.0 960.0 720.0" fill="none" stroke="none" stroke-linecap="square" stroke-miterlimit="10" xmlns:xlink="http://www.w3.org/1999/xlink" xmlns="http://www.w3.org/2000/svg"><clipPath id="p.0"><path d="m0 0l960.0 0l0 720.0l-960.0 0l0 -720.0z" clip-rule="nonzero"/></clipPath><g clip-path="url(#p.0)"><path fill="#000000" fill-opacity="0.0" d="m0 0l960.0 0l0 720.0l-960.0 0z" fill-rule="evenodd"/><path fill="#cfe2f3" d="m673.579 65.26509l0 0c0 -26.413994 17.443298 -47.82677 38.960632 -47.82677l0 0c10.333008 0 20.242798 5.0388775 27.549316 14.008137c7.3065796 8.969261 11.411316 21.134186 11.411316 33.818634l0 0c0 26.413994 -17.443237 47.826775 -38.960632 47.826775l0 0c-21.517334 0 -38.960632 -21.41278 -38.960632 -47.826775z" fill-rule="evenodd"/><path stroke="#000000" stroke-width="2.0" stroke-linejoin="round" stroke-linecap="butt" d="m673.579 65.26509l0 0c0 -26.413994 17.443298 -47.82677 38.960632 -47.82677l0 0c10.333008 0 20.242798 5.0388775 27.549316 14.008137c7.3065796 8.969261 11.411316 21.134186 11.411316 33.818634l0 0c0 26.413994 -17.443237 47.826775 -38.960632 47.826775l0 0c-21.517334 0 -38.960632 -21.41278 -38.960632 -47.826775z" fill-rule="evenodd"/><path fill="#cfe2f3" d="m580.71545 246.3736l0 0c6.6882935 -24.97023 28.566406 -37.858795 48.86615 -28.7874l0 0c9.748291 4.3562317 17.821411 13.297501 22.44336 24.856827c4.6219482 11.559326 5.4141846 24.789825 2.2023315 36.780975l0 0c-6.6882935 24.970215 -28.566406 37.858765 -48.86615 28.787384l0 0c-20.299744 -9.071381 -31.333984 -36.667572 -24.64569 -61.637787z" fill-rule="evenodd"/><path stroke="#000000" stroke-width="2.0" stroke-linejoin="round" stroke-linecap="butt" d="m580.71545 246.3736l0 0c6.6882935 -24.97023 28.566406 -37.858795 48.86615 -28.7874l0 0c9.748291 4.3562317 17.821411 13.297501 22.44336 24.856827c4.6219482 11.559326 5.4141846 24.789825 2.2023315 36.780975l0 0c-6.6882935 24.970215 -28.566406 37.858765 -48.86615 28.787384l0 0c-20.299744 -9.071381 -31.333984 -36.667572 -24.64569 -61.637787z" fill-rule="evenodd"/><path fill="#cfe2f3" d="m779.108 285.21606l0 0c-8.253784 -23.569946 1.109436 -52.71022 20.913391 -65.086624l0 0c9.510254 -5.9433594 20.205444 -7.1469574 29.73291 -3.3460236c9.527405 3.8009338 17.106628 12.295059 21.070251 23.613739l0 0c8.253845 23.569946 -1.109375 52.710205 -20.913391 65.08661l0 0c-19.803955 12.376404 -42.549316 3.302246 -50.80316 -20.2677z" fill-rule="evenodd"/><path stroke="#000000" stroke-width="2.0" stroke-linejoin="round" stroke-linecap="butt" d="m779.108 285.21606l0 0c-8.253784 -23.569946 1.109436 -52.71022 20.913391 -65.086624l0 0c9.510254 -5.9433594 20.205444 -7.1469574 29.73291 -3.3460236c9.527405 3.8009338 17.106628 12.295059 21.070251 23.613739l0 0c8.253845 23.569946 -1.109375 52.710205 -20.913391 65.08661l0 0c-19.803955 12.376404 -42.549316 3.302246 -50.80316 -20.2677z" fill-rule="evenodd"/><path fill="#000000" fill-opacity="0.0" d="m684.9903 99.083725l-55.40155 118.48819" fill-rule="evenodd"/><path stroke="#000000" stroke-width="1.0" stroke-linejoin="round" stroke-linecap="butt" d="m684.9903 99.083725l-55.40155 118.48819" fill-rule="evenodd"/><path fill="#000000" fill-opacity="0.0" d="m740.03143 96.22207l53.95276 124.18897" fill-rule="evenodd"/><path stroke="#000000" stroke-width="1.0" stroke-linejoin="round" stroke-linecap="butt" d="m740.03143 96.22207l53.95276 124.18897" fill-rule="evenodd"/><path fill="#c9daf8" d="m498.30994 516.93835l0 0c6.688324 -24.970215 28.566406 -37.858765 48.86615 -28.787384l0 0c9.748291 4.3562317 17.821411 13.297485 22.44336 24.856842c4.6219482 11.559326 5.4141235 24.789795 2.2023315 36.780945l0 0c-6.6882935 24.970215 -28.566406 37.858765 -48.86615 28.787415l0 0c-20.299744 -9.071411 -31.333984 -36.667603 -24.64569 -61.637817z" fill-rule="evenodd"/><path stroke="#000000" stroke-width="2.0" stroke-linejoin="round" stroke-linecap="butt" d="m498.30994 516.93835l0 0c6.688324 -24.970215 28.566406 -37.858765 48.86615 -28.787384l0 0c9.748291 4.3562317 17.821411 13.297485 22.44336 24.856842c4.6219482 11.559326 5.4141235 24.789795 2.2023315 36.780945l0 0c-6.6882935 24.970215 -28.566406 37.858765 -48.86615 28.787415l0 0c-20.299744 -9.071411 -31.333984 -36.667603 -24.64569 -61.637817z" fill-rule="evenodd"/><path fill="#cfe2f3" d="m635.02997 540.79175l0 0c-3.0006104 -26.14441 11.798645 -50.645355 33.055115 -54.724426l0 0c10.207703 -1.9588623 20.569702 1.1499634 28.806519 8.642578c8.236877 7.492584 13.673767 18.755188 15.114746 31.31018l0 0c3.0005493 26.144348 -11.798706 50.645325 -33.055176 54.724426l0 0c-21.256409 4.0790405 -40.920654 -13.808411 -43.921204 -39.95276z" fill-rule="evenodd"/><path stroke="#000000" stroke-width="2.0" stroke-linejoin="round" stroke-linecap="butt" d="m635.02997 540.79175l0 0c-3.0006104 -26.14441 11.798645 -50.645355 33.055115 -54.724426l0 0c10.207703 -1.9588623 20.569702 1.1499634 28.806519 8.642578c8.236877 7.492584 13.673767 18.755188 15.114746 31.31018l0 0c3.0005493 26.144348 -11.798706 50.645325 -33.055176 54.724426l0 0c-21.256409 4.0790405 -40.920654 -13.808411 -43.921204 -39.95276z" fill-rule="evenodd"/><path fill="#cfe2f3" d="m729.14606 521.76074l0 0c4.7139893 -25.709503 25.499268 -41.33371 46.425232 -34.897644l0 0c10.04895 3.0907288 18.78711 10.95932 24.292114 21.874847c5.505005 10.915497 7.3259277 23.983734 5.062195 36.329865l0 0c-4.7139893 25.709534 -25.499268 41.33374 -46.42517 34.897644l0 0c-20.925964 -6.436035 -34.06836 -32.49518 -29.35437 -58.204712z" fill-rule="evenodd"/><path stroke="#000000" stroke-width="2.0" stroke-linejoin="round" stroke-linecap="butt" d="m729.14606 521.76074l0 0c4.7139893 -25.709503 25.499268 -41.33371 46.425232 -34.897644l0 0c10.04895 3.0907288 18.78711 10.95932 24.292114 21.874847c5.505005 10.915497 7.3259277 23.983734 5.062195 36.329865l0 0c-4.7139893 25.709534 -25.499268 41.33374 -46.42517 34.897644l0 0c-20.925964 -6.436035 -34.06836 -32.49518 -29.35437 -58.204712z" fill-rule="evenodd"/><path fill="#cfe2f3" d="m853.1728 516.94824l0 0c6.6882935 -24.970245 28.566406 -37.858795 48.86615 -28.787415l0 0c9.74823 4.3562317 17.82135 13.297516 22.443298 24.856812c4.6220093 11.559326 5.4141846 24.789856 2.2023315 36.781006l0 0c-6.6882935 24.970215 -28.566406 37.858765 -48.86609 28.787415l0 0c-20.299744 -9.071411 -31.333984 -36.667603 -24.64569 -61.637817z" fill-rule="evenodd"/><path stroke="#000000" stroke-width="2.0" stroke-linejoin="round" stroke-linecap="butt" d="m853.1728 516.94824l0 0c6.6882935 -24.970245 28.566406 -37.858795 48.86615 -28.787415l0 0c9.74823 4.3562317 17.82135 13.297516 22.443298 24.856812c4.6220093 11.559326 5.4141846 24.789856 2.2023315 36.781006l0 0c-6.6882935 24.970215 -28.566406 37.858765 -48.86609 28.787415l0 0c-20.299744 -9.071411 -31.333984 -36.667603 -24.64569 -61.637817z" fill-rule="evenodd"/><path fill="#000000" fill-opacity="0.0" d="m605.36115 308.01138l-58.173218 180.12598" fill-rule="evenodd"/><path stroke="#000000" stroke-width="1.0" stroke-linejoin="round" stroke-linecap="butt" d="m605.36115 308.01138l-58.173218 180.12598" fill-rule="evenodd"/><path fill="#000000" fill-opacity="0.0" d="m634.8985 306.3833l33.19684 179.68503" fill-rule="evenodd"/><path stroke="#000000" stroke-width="1.0" stroke-linejoin="round" stroke-linecap="butt" d="m634.8985 306.3833l33.19684 179.68503" fill-rule="evenodd"/><path fill="#000000" fill-opacity="0.0" d="m800.1783 308.8298l-24.59845 178.04724" fill-rule="evenodd"/><path stroke="#000000" stroke-width="1.0" stroke-linejoin="round" stroke-linecap="butt" d="m800.1783 308.8298l-24.59845 178.04724" fill-rule="evenodd"/><path fill="#000000" fill-opacity="0.0" d="m829.91113 305.48376l42.582703 184.31497" fill-rule="evenodd"/><path stroke="#000000" stroke-width="1.0" stroke-linejoin="round" stroke-linecap="butt" d="m829.91113 305.48376l42.582703 184.31497" fill-rule="evenodd"/><path fill="#cfe2f3" d="m24.593178 391.00827l0 0c0 -10.903656 8.839146 -19.742798 19.742783 -19.742798l235.36218 0l0 0l109.33072 0l53.14435 0c5.2361145 0 10.257782 2.0800476 13.960266 5.7825317c3.7024841 3.7024841 5.7825317 8.724152 5.7825317 13.960266l0 49.356964l0 0l0 29.614166l0 0c0 10.9036255 -8.839142 19.742767 -19.742798 19.742767l-53.14435 0l108.33215 49.914124l-217.66287 -49.914124l-235.36218 0c-10.903637 0 -19.742783 -8.839142 -19.742783 -19.742767l0 0l0 -29.614166l0 0z" fill-rule="evenodd"/><path stroke="#000000" stroke-width="1.0" stroke-linejoin="round" stroke-linecap="butt" d="m24.593178 391.00827l0 0c0 -10.903656 8.839146 -19.742798 19.742783 -19.742798l235.36218 0l0 0l109.33072 0l53.14435 0c5.2361145 0 10.257782 2.0800476 13.960266 5.7825317c3.7024841 3.7024841 5.7825317 8.724152 5.7825317 13.960266l0 49.356964l0 0l0 29.614166l0 0c0 10.9036255 -8.839142 19.742767 -19.742798 19.742767l-53.14435 0l108.33215 49.914124l-217.66287 -49.914124l-235.36218 0c-10.903637 0 -19.742783 -8.839142 -19.742783 -19.742767l0 0l0 -29.614166l0 0z" fill-rule="evenodd"/><path fill="#000000" d="m41.00064 413.77258l3.203125 -0.28125q0.234375 1.9375 1.0625 3.171875q0.84375 1.234375 2.59375 2.0q1.765625 0.765625 3.96875 0.765625q1.9375 0 3.4375 -0.578125q1.5 -0.578125 2.21875 -1.578125q0.734375 -1.015625 0.734375 -2.21875q0 -1.203125 -0.703125 -2.109375q-0.703125 -0.90625 -2.3125 -1.53125q-1.046875 -0.40625 -4.59375 -1.25q-3.546875 -0.859375 -4.96875 -1.609375q-1.859375 -0.96875 -2.765625 -2.390625q-0.890625 -1.4375 -0.890625 -3.21875q0 -1.953125 1.09375 -3.640625q1.109375 -1.703125 3.234375 -2.578125q2.140625 -0.875 4.734375 -0.875q2.859375 0 5.046875 0.921875q2.203125 0.921875 3.375 2.71875q1.171875 1.78125 1.265625 4.046875l-3.265625 0.25q-0.265625 -2.4375 -1.796875 -3.6875q-1.515625 -1.25 -4.484375 -1.25q-3.09375 0 -4.515625 1.140625q-1.40625 1.125 -1.40625 2.71875q0 1.390625 1.0 2.296875q0.984375 0.890625 5.140625 1.828125q4.15625 0.9375 5.703125 1.640625q2.25 1.046875 3.3125 2.640625q1.078125 1.578125 1.078125 3.65625q0 2.0625 -1.171875 3.890625q-1.171875 1.8125 -3.390625 2.828125q-2.203125 1.0 -4.953125 1.0q-3.5 0 -5.875 -1.015625q-2.359375 -1.015625 -3.703125 -3.0625q-1.34375 -2.0625 -1.40625 -4.640625zm31.667969 5.453125l0.453125 2.796875q-1.328125 0.28125 -2.390625 0.28125q-1.71875 0 -2.671875 -0.546875q-0.9375 -0.546875 -1.328125 -1.4375q-0.390625 -0.890625 -0.390625 -3.734375l0 -10.734375l-2.3125 0l0 -2.46875l2.3125 0l0 -4.625l3.140625 -1.890625l0 6.515625l3.1875 0l0 2.46875l-3.1875 0l0 10.90625q0 1.359375 0.171875 1.75q0.171875 0.375 0.546875 0.609375q0.375 0.234375 1.078125 0.234375q0.53125 0 1.390625 -0.125zm1.9238281 -6.5q0 -5.1875 2.875 -7.6875q2.40625 -2.078125 5.875 -2.078125q3.84375 0 6.28125 2.53125q2.453125 2.515625 2.453125 6.96875q0 3.59375 -1.078125 5.671875q-1.078125 2.0625 -3.15625 3.203125q-2.0625 1.140625 -4.5 1.140625q-3.921875 0 -6.34375 -2.515625q-2.40625 -2.515625 -2.40625 -7.234375zm3.25 0q0 3.578125 1.5625 5.359375q1.5625 1.78125 3.9375 1.78125q2.359375 0 3.921875 -1.78125q1.5625 -1.796875 1.5625 -5.46875q0 -3.46875 -1.578125 -5.25q-1.578125 -1.78125 -3.90625 -1.78125q-2.375 0 -3.9375 1.78125q-1.5625 1.765625 -1.5625 5.359375zm17.91211 9.328125l0 -18.671875l2.84375 0l0 2.828125q1.09375 -1.984375 2.015625 -2.609375q0.921875 -0.640625 2.03125 -0.640625q1.59375 0 3.25 1.015625l-1.09375 2.9375q-1.15625 -0.6875 -2.3125 -0.6875q-1.046875 0 -1.875 0.625q-0.828125 0.625 -1.171875 1.734375q-0.53125 1.6875 -0.53125 3.6875l0 9.78125l-3.15625 0zm24.800781 -6.015625l3.265625 0.40625q-0.765625 2.859375 -2.859375 4.453125q-2.09375 1.578125 -5.34375 1.578125q-4.09375 0 -6.5 -2.515625q-2.40625 -2.53125 -2.40625 -7.078125q0 -4.71875 2.421875 -7.3125q2.4375 -2.609375 6.296875 -2.609375q3.75 0 6.125 2.546875q2.375 2.546875 2.375 7.171875q0 0.28125 -0.015625 0.84375l-13.921875 0q0.171875 3.078125 1.734375 4.71875q1.5625 1.625 3.90625 1.625q1.734375 0 2.96875 -0.90625q1.234375 -0.921875 1.953125 -2.921875zm-10.390625 -5.109375l10.421875 0q-0.203125 -2.359375 -1.1875 -3.53125q-1.515625 -1.828125 -3.921875 -1.828125q-2.1875 0 -3.671875 1.453125q-1.484375 1.453125 -1.640625 3.90625zm16.365234 5.546875l3.125 -0.484375q0.265625 1.875 1.46875 2.875q1.203125 1.0 3.375 1.0q2.171875 0 3.21875 -0.875q1.0625 -0.890625 1.0625 -2.09375q0 -1.0625 -0.9375 -1.6875q-0.640625 -0.421875 -3.234375 -1.0625q-3.46875 -0.890625 -4.8125 -1.53125q-1.34375 -0.640625 -2.046875 -1.765625q-0.6875 -1.140625 -0.6875 -2.515625q0 -1.234375 0.5625 -2.296875q0.578125 -1.078125 1.5625 -1.78125q0.734375 -0.53125 2.0 -0.90625q1.28125 -0.390625 2.75 -0.390625q2.1875 0 3.84375 0.640625q1.671875 0.625 2.453125 1.71875q0.796875 1.078125 1.09375 2.875l-3.09375 0.421875q-0.203125 -1.4375 -1.21875 -2.234375q-1.015625 -0.8125 -2.859375 -0.8125q-2.171875 0 -3.109375 0.71875q-0.9375 0.71875 -0.9375 1.6875q0 0.609375 0.390625 1.109375q0.390625 0.5 1.21875 0.84375q0.46875 0.171875 2.796875 0.796875q3.359375 0.90625 4.671875 1.484375q1.328125 0.5625 2.078125 1.65625q0.765625 1.078125 0.765625 2.703125q0 1.578125 -0.921875 2.984375q-0.921875 1.390625 -2.671875 2.15625q-1.734375 0.765625 -3.921875 0.765625q-3.640625 0 -5.546875 -1.515625q-1.90625 -1.515625 -2.4375 -4.484375zm41.501953 5.578125l0 -2.75q-2.1875 3.171875 -5.921875 3.171875q-1.65625 0 -3.09375 -0.625q-1.421875 -0.640625 -2.125 -1.59375q-0.6875 -0.96875 -0.96875 -2.359375q-0.203125 -0.921875 -0.203125 -2.953125l0 -11.5625l3.171875 0l0 10.359375q0 2.46875 0.1875 3.34375q0.296875 1.234375 1.265625 1.953125q0.96875 0.71875 2.390625 0.71875q1.421875 0 2.671875 -0.734375q1.25 -0.734375 1.765625 -1.984375q0.53125 -1.265625 0.53125 -3.65625l0 -10.0l3.15625 0l0 18.671875l-2.828125 0zm6.5214844 -5.578125l3.125 -0.484375q0.265625 1.875 1.46875 2.875q1.203125 1.0 3.375 1.0q2.171875 0 3.21875 -0.875q1.0625 -0.890625 1.0625 -2.09375q0 -1.0625 -0.9375 -1.6875q-0.640625 -0.421875 -3.234375 -1.0625q-3.46875 -0.890625 -4.8125 -1.53125q-1.34375 -0.640625 -2.046875 -1.765625q-0.6875 -1.140625 -0.6875 -2.515625q0 -1.234375 0.5625 -2.296875q0.578125 -1.078125 1.5625 -1.78125q0.734375 -0.53125 2.0 -0.90625q1.28125 -0.390625 2.75 -0.390625q2.1875 0 3.84375 0.640625q1.671875 0.625 2.453125 1.71875q0.796875 1.078125 1.09375 2.875l-3.09375 0.421875q-0.203125 -1.4375 -1.21875 -2.234375q-1.015625 -0.8125 -2.859375 -0.8125q-2.171875 0 -3.109375 0.71875q-0.9375 0.71875 -0.9375 1.6875q0 0.609375 0.390625 1.109375q0.390625 0.5 1.21875 0.84375q0.46875 0.171875 2.796875 0.796875q3.359375 0.90625 4.671875 1.484375q1.328125 0.5625 2.078125 1.65625q0.765625 1.078125 0.765625 2.703125q0 1.578125 -0.921875 2.984375q-0.921875 1.390625 -2.671875 2.15625q-1.734375 0.765625 -3.921875 0.765625q-3.640625 0 -5.546875 -1.515625q-1.90625 -1.515625 -2.4375 -4.484375zm32.046875 -0.4375l3.265625 0.40625q-0.765625 2.859375 -2.859375 4.453125q-2.09375 1.578125 -5.34375 1.578125q-4.09375 0 -6.5 -2.515625q-2.40625 -2.53125 -2.40625 -7.078125q0 -4.71875 2.421875 -7.3125q2.4375 -2.609375 6.296875 -2.609375q3.75 0 6.125 2.546875q2.375 2.546875 2.375 7.171875q0 0.28125 -0.015625 0.84375l-13.921875 0q0.171875 3.078125 1.734375 4.71875q1.5625 1.625 3.90625 1.625q1.734375 0 2.96875 -0.90625q1.234375 -0.921875 1.953125 -2.921875zm-10.390625 -5.109375l10.421875 0q-0.203125 -2.359375 -1.1875 -3.53125q-1.515625 -1.828125 -3.921875 -1.828125q-2.1875 0 -3.671875 1.453125q-1.484375 1.453125 -1.640625 3.90625zm17.59961 11.125l0 -18.671875l2.84375 0l0 2.828125q1.09375 -1.984375 2.015625 -2.609375q0.921875 -0.640625 2.03125 -0.640625q1.59375 0 3.25 1.015625l-1.09375 2.9375q-1.15625 -0.6875 -2.3125 -0.6875q-1.046875 0 -1.875 0.625q-0.828125 0.625 -1.171875 1.734375q-0.53125 1.6875 -0.53125 3.6875l0 9.78125l-3.15625 0zm13.167969 -22.359375l0 -3.671875l3.390625 0l0 2.890625q0 2.359375 -0.546875 3.40625q-0.765625 1.421875 -2.359375 2.140625l-0.765625 -1.25q0.9375 -0.390625 1.40625 -1.21875q0.46875 -0.84375 0.515625 -2.296875l-1.640625 0zm6.2695312 16.78125l3.125 -0.484375q0.265625 1.875 1.46875 2.875q1.203125 1.0 3.375 1.0q2.171875 0 3.21875 -0.875q1.0625 -0.890625 1.0625 -2.09375q0 -1.0625 -0.9375 -1.6875q-0.640625 -0.421875 -3.234375 -1.0625q-3.46875 -0.890625 -4.8125 -1.53125q-1.34375 -0.640625 -2.046875 -1.765625q-0.6875 -1.140625 -0.6875 -2.515625q0 -1.234375 0.5625 -2.296875q0.578125 -1.078125 1.5625 -1.78125q0.734375 -0.53125 2.0 -0.90625q1.28125 -0.390625 2.75 -0.390625q2.1875 0 3.84375 0.640625q1.671875 0.625 2.453125 1.71875q0.796875 1.078125 1.09375 2.875l-3.09375 0.421875q-0.203125 -1.4375 -1.21875 -2.234375q-1.015625 -0.8125 -2.859375 -0.8125q-2.171875 0 -3.109375 0.71875q-0.9375 0.71875 -0.9375 1.6875q0 0.609375 0.390625 1.109375q0.390625 0.5 1.21875 0.84375q0.46875 0.171875 2.796875 0.796875q3.359375 0.90625 4.671875 1.484375q1.328125 0.5625 2.078125 1.65625q0.765625 1.078125 0.765625 2.703125q0 1.578125 -0.921875 2.984375q-0.921875 1.390625 -2.671875 2.15625q-1.734375 0.765625 -3.921875 0.765625q-3.640625 0 -5.546875 -1.515625q-1.90625 -1.515625 -2.4375 -4.484375zm29.267578 12.734375l0 -25.828125l2.875 0l0 2.421875q1.03125 -1.421875 2.3125 -2.125q1.28125 -0.71875 3.109375 -0.71875q2.390625 0 4.21875 1.234375q1.828125 1.234375 2.75 3.484375q0.9375 2.234375 0.9375 4.90625q0 2.859375 -1.03125 5.15625q-1.015625 2.296875 -2.984375 3.515625q-1.953125 1.21875 -4.125 1.21875q-1.578125 0 -2.84375 -0.671875q-1.25 -0.671875 -2.0625 -1.6875l0 9.09375l-3.15625 0zm2.859375 -16.390625q0 3.609375 1.453125 5.328125q1.46875 1.71875 3.546875 1.71875q2.109375 0 3.609375 -1.78125q1.5 -1.78125 1.5 -5.53125q0 -3.5625 -1.46875 -5.328125q-1.46875 -1.78125 -3.5 -1.78125q-2.03125 0 -3.59375 1.890625q-1.546875 1.890625 -1.546875 5.484375zm29.396484 9.234375l0 -2.75q-2.1875 3.171875 -5.921875 3.171875q-1.65625 0 -3.09375 -0.625q-1.421875 -0.640625 -2.125 -1.59375q-0.6875 -0.96875 -0.96875 -2.359375q-0.203125 -0.921875 -0.203125 -2.953125l0 -11.5625l3.171875 0l0 10.359375q0 2.46875 0.1875 3.34375q0.296875 1.234375 1.265625 1.953125q0.96875 0.71875 2.390625 0.71875q1.421875 0 2.671875 -0.734375q1.25 -0.734375 1.765625 -1.984375q0.53125 -1.265625 0.53125 -3.65625l0 -10.0l3.15625 0l0 18.671875l-2.828125 0zm10.708984 0l-2.9375 0l0 -25.765625l3.15625 0l0 9.1875q2.015625 -2.515625 5.125 -2.515625q1.71875 0 3.25 0.703125q1.546875 0.6875 2.53125 1.953125q1.0 1.25 1.5625 3.03125q0.5625 1.765625 0.5625 3.796875q0 4.796875 -2.375 7.421875q-2.375 2.609375 -5.6875 2.609375q-3.3125 0 -5.1875 -2.765625l0 2.34375zm-0.046875 -9.46875q0 3.34375 0.921875 4.84375q1.5 2.4375 4.046875 2.4375q2.0625 0 3.578125 -1.796875q1.515625 -1.796875 1.515625 -5.375q0 -3.65625 -1.453125 -5.390625q-1.453125 -1.734375 -3.5 -1.734375q-2.078125 0 -3.59375 1.796875q-1.515625 1.796875 -1.515625 5.21875zm17.06836 9.46875l0 -25.765625l3.171875 0l0 25.765625l-3.171875 0zm8.091797 -22.125l0 -3.640625l3.171875 0l0 3.640625l-3.171875 0zm0 22.125l0 -18.671875l3.171875 0l0 18.671875l-3.171875 0zm20.169922 -6.84375l3.109375 0.40625q-0.515625 3.21875 -2.625 5.046875q-2.09375 1.8125 -5.15625 1.8125q-3.828125 0 -6.15625 -2.5q-2.328125 -2.515625 -2.328125 -7.1875q0 -3.015625 1.0 -5.28125q1.0 -2.28125 3.046875 -3.40625q2.046875 -1.140625 4.46875 -1.140625q3.03125 0 4.96875 1.546875q1.9375 1.53125 2.484375 4.359375l-3.078125 0.484375q-0.4375 -1.890625 -1.5625 -2.828125q-1.109375 -0.953125 -2.703125 -0.953125q-2.390625 0 -3.890625 1.71875q-1.484375 1.703125 -1.484375 5.40625q0 3.765625 1.4375 5.46875q1.453125 1.703125 3.765625 1.703125q1.859375 0 3.109375 -1.140625q1.25 -1.140625 1.59375 -3.515625zm15.830078 6.84375l0 -25.765625l3.171875 0l0 14.6875l7.484375 -7.59375l4.09375 0l-7.140625 6.921875l7.859375 11.75l-3.90625 0l-6.171875 -9.546875l-2.21875 2.140625l0 7.40625l-3.171875 0zm30.765625 -6.015625l3.265625 0.40625q-0.765625 2.859375 -2.859375 4.453125q-2.09375 1.578125 -5.34375 1.578125q-4.09375 0 -6.5 -2.515625q-2.40625 -2.53125 -2.40625 -7.078125q0 -4.71875 2.421875 -7.3125q2.4375 -2.609375 6.296875 -2.609375q3.75 0 6.125 2.546875q2.375 2.546875 2.375 7.171875q0 0.28125 -0.015625 0.84375l-13.921875 0q0.171875 3.078125 1.734375 4.71875q1.5625 1.625 3.90625 1.625q1.734375 0 2.96875 -0.90625q1.234375 -0.921875 1.953125 -2.921875zm-10.390625 -5.109375l10.421875 0q-0.203125 -2.359375 -1.1875 -3.53125q-1.515625 -1.828125 -3.921875 -1.828125q-2.1875 0 -3.671875 1.453125q-1.484375 1.453125 -1.640625 3.90625zm17.490234 18.3125l-0.359375 -2.96875q1.046875 0.28125 1.8125 0.28125q1.0625 0 1.6875 -0.359375q0.640625 -0.34375 1.046875 -0.96875q0.296875 -0.484375 0.96875 -2.359375q0.078125 -0.265625 0.28125 -0.78125l-7.09375 -18.703125l3.40625 0l3.890625 10.8125q0.75 2.0625 1.359375 4.328125q0.546875 -2.1875 1.296875 -4.25l3.984375 -10.890625l3.171875 0l-7.109375 18.984375q-1.140625 3.078125 -1.765625 4.234375q-0.84375 1.578125 -1.9375 2.296875q-1.09375 0.734375 -2.609375 0.734375q-0.90625 0 -2.03125 -0.390625z" fill-rule="nonzero"/><path fill="#000000" d="m41.766266 442.92883l0 -3.640625l3.171875 0l0 3.640625l-3.171875 0zm0 22.125l0 -18.671875l3.171875 0l0 18.671875l-3.171875 0zm7.982422 0l0 -18.671875l2.84375 0l0 2.65625q2.0625 -3.078125 5.9375 -3.078125q1.6875 0 3.109375 0.609375q1.421875 0.609375 2.125 1.59375q0.703125 0.984375 0.984375 2.328125q0.171875 0.890625 0.171875 3.078125l0 11.484375l-3.171875 0l0 -11.359375q0 -1.9375 -0.375 -2.890625q-0.359375 -0.953125 -1.296875 -1.515625q-0.9375 -0.578125 -2.203125 -0.578125q-2.03125 0 -3.5 1.28125q-1.46875 1.28125 -1.46875 4.859375l0 10.203125l-3.15625 0zm32.13086 0l0 -2.359375q-1.78125 2.78125 -5.21875 2.78125q-2.234375 0 -4.109375 -1.234375q-1.875 -1.234375 -2.90625 -3.4375q-1.015625 -2.203125 -1.015625 -5.0625q0 -2.796875 0.921875 -5.078125q0.9375 -2.28125 2.796875 -3.484375q1.875 -1.21875 4.171875 -1.21875q1.6875 0 3.0 0.71875q1.328125 0.703125 2.15625 1.84375l0 -9.234375l3.140625 0l0 25.765625l-2.9375 0zm-10.0 -9.3125q0 3.578125 1.5 5.359375q1.515625 1.765625 3.578125 1.765625q2.078125 0 3.515625 -1.6875q1.453125 -1.703125 1.453125 -5.171875q0 -3.84375 -1.484375 -5.625q-1.46875 -1.796875 -3.625 -1.796875q-2.109375 0 -3.53125 1.71875q-1.40625 1.71875 -1.40625 5.4375zm30.69336 3.296875l3.265625 0.40625q-0.765625 2.859375 -2.859375 4.453125q-2.09375 1.578125 -5.34375 1.578125q-4.09375 0 -6.5 -2.515625q-2.40625 -2.53125 -2.40625 -7.078125q0 -4.71875 2.421875 -7.3125q2.4375 -2.609375 6.296875 -2.609375q3.75 0 6.125 2.546875q2.375 2.546875 2.375 7.171875q0 0.28125 -0.015625 0.84375l-13.921875 0q0.171875 3.078125 1.734375 4.71875q1.5625 1.625 3.90625 1.625q1.734375 0 2.96875 -0.90625q1.234375 -0.921875 1.953125 -2.921875zm-10.390625 -5.109375l10.421875 0q-0.203125 -2.359375 -1.1875 -3.53125q-1.515625 -1.828125 -3.921875 -1.828125q-2.1875 0 -3.671875 1.453125q-1.484375 1.453125 -1.640625 3.90625zm15.521484 11.125l6.8125 -9.703125l-6.296875 -8.96875l3.953125 0l2.859375 4.375q0.8125 1.25 1.296875 2.09375q0.78125 -1.15625 1.421875 -2.046875l3.15625 -4.421875l3.78125 0l-6.453125 8.796875l6.9375 9.875l-3.875 0l-3.84375 -5.796875l-1.015625 -1.5625l-4.90625 7.359375l-3.828125 0zm32.890625 -6.015625l3.265625 0.40625q-0.765625 2.859375 -2.859375 4.453125q-2.09375 1.578125 -5.34375 1.578125q-4.09375 0 -6.5 -2.515625q-2.40625 -2.53125 -2.40625 -7.078125q0 -4.71875 2.421875 -7.3125q2.4375 -2.609375 6.296875 -2.609375q3.75 0 6.125 2.546875q2.375 2.546875 2.375 7.171875q0 0.28125 -0.015625 0.84375l-13.921875 0q0.171875 3.078125 1.734375 4.71875q1.5625 1.625 3.90625 1.625q1.734375 0 2.96875 -0.90625q1.234375 -0.921875 1.953125 -2.921875zm-10.390625 -5.109375l10.421875 0q-0.203125 -2.359375 -1.1875 -3.53125q-1.515625 -1.828125 -3.921875 -1.828125q-2.1875 0 -3.671875 1.453125q-1.484375 1.453125 -1.640625 3.90625zm29.740234 11.125l0 -2.359375q-1.78125 2.78125 -5.21875 2.78125q-2.234375 0 -4.109375 -1.234375q-1.875 -1.234375 -2.90625 -3.4375q-1.015625 -2.203125 -1.015625 -5.0625q0 -2.796875 0.921875 -5.078125q0.9375 -2.28125 2.796875 -3.484375q1.875 -1.21875 4.171875 -1.21875q1.6875 0 3.0 0.71875q1.328125 0.703125 2.15625 1.84375l0 -9.234375l3.140625 0l0 25.765625l-2.9375 0zm-10.0 -9.3125q0 3.578125 1.5 5.359375q1.515625 1.765625 3.578125 1.765625q2.078125 0 3.515625 -1.6875q1.453125 -1.703125 1.453125 -5.171875q0 -3.84375 -1.484375 -5.625q-1.46875 -1.796875 -3.625 -1.796875q-2.109375 0 -3.53125 1.71875q-1.40625 1.71875 -1.40625 5.4375zm30.835938 9.3125l-2.9375 0l0 -25.765625l3.15625 0l0 9.1875q2.015625 -2.515625 5.125 -2.515625q1.71875 0 3.25 0.703125q1.546875 0.6875 2.53125 1.953125q1.0 1.25 1.5625 3.03125q0.5625 1.765625 0.5625 3.796875q0 4.796875 -2.375 7.421875q-2.375 2.609375 -5.6875 2.609375q-3.3125 0 -5.1875 -2.765625l0 2.34375zm-0.046875 -9.46875q0 3.34375 0.921875 4.84375q1.5 2.4375 4.046875 2.4375q2.0625 0 3.578125 -1.796875q1.515625 -1.796875 1.515625 -5.375q0 -3.65625 -1.453125 -5.390625q-1.453125 -1.734375 -3.5 -1.734375q-2.078125 0 -3.59375 1.796875q-1.515625 1.796875 -1.515625 5.21875zm17.00586 16.65625l-0.359375 -2.96875q1.046875 0.28125 1.8125 0.28125q1.0625 0 1.6875 -0.359375q0.640625 -0.34375 1.046875 -0.96875q0.296875 -0.484375 0.96875 -2.359375q0.078125 -0.265625 0.28125 -0.78125l-7.09375 -18.703125l3.40625 0l3.890625 10.8125q0.75 2.0625 1.359375 4.328125q0.546875 -2.1875 1.296875 -4.25l3.984375 -10.890625l3.171875 0l-7.109375 18.984375q-1.140625 3.078125 -1.765625 4.234375q-0.84375 1.578125 -1.9375 2.296875q-1.09375 0.734375 -2.609375 0.734375q-0.90625 0 -2.03125 -0.390625zm40.33008 -9.484375q-1.765625 1.484375 -3.390625 2.109375q-1.625 0.609375 -3.484375 0.609375q-3.078125 0 -4.734375 -1.5q-1.65625 -1.5 -1.65625 -3.84375q0 -1.375 0.625 -2.5q0.625 -1.140625 1.640625 -1.828125q1.015625 -0.6875 2.28125 -1.03125q0.921875 -0.25 2.8125 -0.484375q3.828125 -0.453125 5.640625 -1.078125q0.015625 -0.65625 0.015625 -0.828125q0 -1.9375 -0.90625 -2.734375q-1.203125 -1.0625 -3.59375 -1.0625q-2.234375 0 -3.296875 0.78125q-1.0625 0.78125 -1.578125 2.765625l-3.09375 -0.421875q0.421875 -1.984375 1.390625 -3.203125q0.96875 -1.21875 2.796875 -1.875q1.828125 -0.671875 4.234375 -0.671875q2.390625 0 3.875 0.5625q1.5 0.5625 2.203125 1.421875q0.703125 0.84375 0.984375 2.15625q0.15625 0.796875 0.15625 2.90625l0 4.21875q0 4.421875 0.203125 5.59375q0.203125 1.15625 0.8125 2.234375l-3.3125 0q-0.484375 -0.984375 -0.625 -2.296875zm-0.265625 -7.078125q-1.734375 0.703125 -5.171875 1.203125q-1.953125 0.28125 -2.765625 0.640625q-0.796875 0.34375 -1.25 1.015625q-0.4375 0.671875 -0.4375 1.5q0 1.265625 0.953125 2.109375q0.96875 0.84375 2.8125 0.84375q1.828125 0 3.25 -0.796875q1.421875 -0.796875 2.09375 -2.1875q0.515625 -1.078125 0.515625 -3.15625l0 -1.171875zm20.28711 2.53125l3.109375 0.40625q-0.515625 3.21875 -2.625 5.046875q-2.09375 1.8125 -5.15625 1.8125q-3.828125 0 -6.15625 -2.5q-2.328125 -2.515625 -2.328125 -7.1875q0 -3.015625 1.0 -5.28125q1.0 -2.28125 3.046875 -3.40625q2.046875 -1.140625 4.46875 -1.140625q3.03125 0 4.96875 1.546875q1.9375 1.53125 2.484375 4.359375l-3.078125 0.484375q-0.4375 -1.890625 -1.5625 -2.828125q-1.109375 -0.953125 -2.703125 -0.953125q-2.390625 0 -3.890625 1.71875q-1.484375 1.703125 -1.484375 5.40625q0 3.765625 1.4375 5.46875q1.453125 1.703125 3.765625 1.703125q1.859375 0 3.109375 -1.140625q1.25 -1.140625 1.59375 -3.515625zm18.0 0l3.109375 0.40625q-0.515625 3.21875 -2.625 5.046875q-2.09375 1.8125 -5.15625 1.8125q-3.828125 0 -6.15625 -2.5q-2.328125 -2.515625 -2.328125 -7.1875q0 -3.015625 1.0 -5.28125q1.0 -2.28125 3.046875 -3.40625q2.046875 -1.140625 4.46875 -1.140625q3.03125 0 4.96875 1.546875q1.9375 1.53125 2.484375 4.359375l-3.078125 0.484375q-0.4375 -1.890625 -1.5625 -2.828125q-1.109375 -0.953125 -2.703125 -0.953125q-2.390625 0 -3.890625 1.71875q-1.484375 1.703125 -1.484375 5.40625q0 3.765625 1.4375 5.46875q1.453125 1.703125 3.765625 1.703125q1.859375 0 3.109375 -1.140625q1.25 -1.140625 1.59375 -3.515625zm4.640625 -2.484375q0 -5.1875 2.875 -7.6875q2.40625 -2.078125 5.875 -2.078125q3.84375 0 6.28125 2.53125q2.453125 2.515625 2.453125 6.96875q0 3.59375 -1.078125 5.671875q-1.078125 2.0625 -3.15625 3.203125q-2.0625 1.140625 -4.5 1.140625q-3.921875 0 -6.34375 -2.515625q-2.40625 -2.515625 -2.40625 -7.234375zm3.25 0q0 3.578125 1.5625 5.359375q1.5625 1.78125 3.9375 1.78125q2.359375 0 3.921875 -1.78125q1.5625 -1.796875 1.5625 -5.46875q0 -3.46875 -1.578125 -5.25q-1.578125 -1.78125 -3.90625 -1.78125q-2.375 0 -3.9375 1.78125q-1.5625 1.765625 -1.5625 5.359375zm30.177734 9.328125l0 -2.75q-2.1875 3.171875 -5.921875 3.171875q-1.65625 0 -3.09375 -0.625q-1.421875 -0.640625 -2.125 -1.59375q-0.6875 -0.96875 -0.96875 -2.359375q-0.203125 -0.921875 -0.203125 -2.953125l0 -11.5625l3.171875 0l0 10.359375q0 2.46875 0.1875 3.34375q0.296875 1.234375 1.265625 1.953125q0.96875 0.71875 2.390625 0.71875q1.421875 0 2.671875 -0.734375q1.25 -0.734375 1.765625 -1.984375q0.53125 -1.265625 0.53125 -3.65625l0 -10.0l3.15625 0l0 18.671875l-2.828125 0zm7.7871094 0l0 -18.671875l2.84375 0l0 2.65625q2.0625 -3.078125 5.9375 -3.078125q1.6875 0 3.109375 0.609375q1.421875 0.609375 2.125 1.59375q0.703125 0.984375 0.984375 2.328125q0.171875 0.890625 0.171875 3.078125l0 11.484375l-3.171875 0l0 -11.359375q0 -1.9375 -0.375 -2.890625q-0.359375 -0.953125 -1.296875 -1.515625q-0.9375 -0.578125 -2.203125 -0.578125q-2.03125 0 -3.5 1.28125q-1.46875 1.28125 -1.46875 4.859375l0 10.203125l-3.15625 0zm26.927734 -2.828125l0.453125 2.796875q-1.328125 0.28125 -2.390625 0.28125q-1.71875 0 -2.671875 -0.546875q-0.9375 -0.546875 -1.328125 -1.4375q-0.390625 -0.890625 -0.390625 -3.734375l0 -10.734375l-2.3125 0l0 -2.46875l2.3125 0l0 -4.625l3.140625 -1.890625l0 6.515625l3.1875 0l0 2.46875l-3.1875 0l0 10.90625q0 1.359375 0.171875 1.75q0.171875 0.375 0.546875 0.609375q0.375 0.234375 1.078125 0.234375q0.53125 0 1.390625 -0.125zm4.080078 2.828125l0 -25.765625l3.40625 0l0 25.765625l-3.40625 0zm9.423828 0l0 -25.765625l8.875 0q3.0 0 4.59375 0.359375q2.203125 0.515625 3.765625 1.84375q2.046875 1.734375 3.046875 4.421875q1.015625 2.671875 1.015625 6.109375q0 2.9375 -0.6875 5.203125q-0.671875 2.265625 -1.75 3.765625q-1.078125 1.484375 -2.359375 2.34375q-1.265625 0.84375 -3.0625 1.28125q-1.796875 0.4375 -4.140625 0.4375l-9.296875 0zm3.40625 -3.046875l5.5 0q2.546875 0 4.0 -0.46875q1.453125 -0.46875 2.3125 -1.34375q1.21875 -1.203125 1.890625 -3.25q0.671875 -2.046875 0.671875 -4.96875q0 -4.046875 -1.328125 -6.21875q-1.328125 -2.171875 -3.21875 -2.90625q-1.375 -0.53125 -4.40625 -0.53125l-5.421875 0l0 19.6875z" fill-rule="nonzero"/><path fill="#000000" fill-opacity="0.0" d="m532.5601 573.84106l77.921265 0l0 109.41736l-77.921265 0z" fill-rule="evenodd"/><path fill="#d9ead3" d="m496.0999 660.20746l19.480347 -39.905457l38.960632 0l19.480286 39.905457l-19.480286 39.905518l-38.960632 0z" fill-rule="evenodd"/><path stroke="#000000" stroke-width="1.0" stroke-linejoin="round" stroke-linecap="butt" d="m496.0999 660.20746l19.480347 -39.905457l38.960632 0l19.480286 39.905457l-19.480286 39.905518l-38.960632 0z" fill-rule="evenodd"/><path fill="#000000" d="m536.8258 667.12744l-1.640625 0l0 -10.453125q-0.59375 0.5625 -1.5625 1.140625q-0.953125 0.5625 -1.71875 0.84375l0 -1.59375q1.375 -0.640625 2.40625 -1.5625q1.03125 -0.921875 1.453125 -1.78125l1.0625 0l0 13.40625z" fill-rule="nonzero"/><path fill="#cfe2f3" d="m634.5641 660.2039l19.480286 -39.905457l38.960632 0l19.480347 39.905457l-19.480347 39.905518l-38.960632 0z" fill-rule="evenodd"/><path stroke="#000000" stroke-width="1.0" stroke-linejoin="round" stroke-linecap="butt" d="m634.5641 660.2039l19.480286 -39.905457l38.960632 0l19.480347 39.905457l-19.480347 39.905518l-38.960632 0z" fill-rule="evenodd"/><path fill="#000000" d="m677.7275 665.54584l0 1.578125l-8.828125 0q-0.015625 -0.59375 0.1875 -1.140625q0.34375 -0.90625 1.078125 -1.78125q0.75 -0.875 2.15625 -2.015625q2.171875 -1.78125 2.9375 -2.828125q0.765625 -1.046875 0.765625 -1.96875q0 -0.984375 -0.703125 -1.640625q-0.6875 -0.671875 -1.8125 -0.671875q-1.1875 0 -1.90625 0.71875q-0.703125 0.703125 -0.703125 1.953125l-1.6875 -0.171875q0.171875 -1.890625 1.296875 -2.875q1.140625 -0.984375 3.03125 -0.984375q1.921875 0 3.046875 1.0625q1.125 1.0625 1.125 2.640625q0 0.796875 -0.328125 1.578125q-0.328125 0.78125 -1.09375 1.640625q-0.75 0.84375 -2.53125 2.34375q-1.46875 1.234375 -1.890625 1.6875q-0.421875 0.4375 -0.6875 0.875l6.546875 0z" fill-rule="nonzero"/><path fill="#cfe2f3" d="m728.0623 660.20746l19.480286 -39.905457l38.960632 0l19.480347 39.905457l-19.480347 39.905518l-38.960632 0z" fill-rule="evenodd"/><path stroke="#000000" stroke-width="1.0" stroke-linejoin="round" stroke-linecap="butt" d="m728.0623 660.20746l19.480286 -39.905457l38.960632 0l19.480347 39.905457l-19.480347 39.905518l-38.960632 0z" fill-rule="evenodd"/><path fill="#000000" d="m762.61633 663.5962l1.640625 -0.21875q0.28125 1.40625 0.953125 2.015625q0.6875 0.609375 1.65625 0.609375q1.15625 0 1.953125 -0.796875q0.796875 -0.796875 0.796875 -1.984375q0 -1.125 -0.734375 -1.859375q-0.734375 -0.734375 -1.875 -0.734375q-0.46875 0 -1.15625 0.171875l0.1875 -1.4375q0.15625 0.015625 0.265625 0.015625q1.046875 0 1.875 -0.546875q0.84375 -0.546875 0.84375 -1.671875q0 -0.90625 -0.609375 -1.5q-0.609375 -0.59375 -1.578125 -0.59375q-0.953125 0 -1.59375 0.609375q-0.640625 0.59375 -0.8125 1.796875l-1.640625 -0.296875q0.296875 -1.640625 1.359375 -2.546875q1.0625 -0.90625 2.65625 -0.90625q1.09375 0 2.0 0.46875q0.921875 0.46875 1.40625 1.28125q0.5 0.8125 0.5 1.71875q0 0.859375 -0.46875 1.578125q-0.46875 0.703125 -1.375 1.125q1.1875 0.28125 1.84375 1.140625q0.65625 0.859375 0.65625 2.15625q0 1.734375 -1.28125 2.953125q-1.265625 1.21875 -3.21875 1.21875q-1.765625 0 -2.921875 -1.046875q-1.15625 -1.046875 -1.328125 -2.71875z" fill-rule="nonzero"/><path fill="#cfe2f3" d="m850.9648 660.20746l19.480347 -39.905457l38.960632 0l19.480286 39.905457l-19.480286 39.905518l-38.960632 0z" fill-rule="evenodd"/><path stroke="#000000" stroke-width="1.0" stroke-linejoin="round" stroke-linecap="butt" d="m850.9648 660.20746l19.480347 -39.905457l38.960632 0l19.480286 39.905457l-19.480286 39.905518l-38.960632 0z" fill-rule="evenodd"/><path fill="#000000" d="m890.7688 667.12744l0 -3.203125l-5.796875 0l0 -1.5l6.09375 -8.65625l1.34375 0l0 8.65625l1.796875 0l0 1.5l-1.796875 0l0 3.203125l-1.640625 0zm0 -4.703125l0 -6.015625l-4.1875 6.015625l4.1875 0z" fill-rule="nonzero"/><path fill="#cfe2f3" d="m182.2945 652.5595l229.62204 0l0 -7.645691l15.291351 15.291321l-15.291351 15.291382l0 -7.645691l-229.62204 0z" fill-rule="evenodd"/><path stroke="#000000" stroke-width="1.0" stroke-linejoin="round" stroke-linecap="butt" d="m182.2945 652.5595l229.62204 0l0 -7.645691l15.291351 15.291321l-15.291351 15.291382l0 -7.645691l-229.62204 0z" fill-rule="evenodd"/><path fill="#000000" fill-opacity="0.0" d="m199.2866 573.84106l314.17322 0l0 30.582703l-314.17322 0z" fill-rule="evenodd"/><path fill="#000000" d="m208.2241 619.96106l10.625 -27.671875l3.953125 0l11.328125 27.671875l-4.171875 0l-3.234375 -8.375l-11.5625 0l-3.046875 8.375l-3.890625 0zm7.984375 -11.359375l9.390625 0l-2.890625 -7.671875q-1.328125 -3.484375 -1.96875 -5.734375q-0.53125 2.65625 -1.484375 5.28125l-3.046875 8.125zm33.48654 4.015625l3.34375 0.4375q-0.546875 3.453125 -2.8125 5.40625q-2.25 1.953125 -5.53125 1.953125q-4.109375 0 -6.609375 -2.6875q-2.5 -2.6875 -2.5 -7.71875q0 -3.234375 1.0625 -5.671875q1.078125 -2.4375 3.28125 -3.65625q2.203125 -1.21875 4.78125 -1.21875q3.265625 0 5.34375 1.65625q2.078125 1.65625 2.671875 4.6875l-3.3125 0.515625q-0.46875 -2.03125 -1.671875 -3.046875q-1.203125 -1.015625 -2.890625 -1.015625q-2.578125 0 -4.1875 1.84375q-1.59375 1.828125 -1.59375 5.8125q0 4.046875 1.546875 5.875q1.546875 1.828125 4.046875 1.828125q2.0 0 3.328125 -1.21875q1.34375 -1.234375 1.703125 -3.78125zm19.32811 0l3.34375 0.4375q-0.546875 3.453125 -2.8125 5.40625q-2.25 1.953125 -5.53125 1.953125q-4.109375 0 -6.609375 -2.6875q-2.4999847 -2.6875 -2.4999847 -7.71875q0 -3.234375 1.0625 -5.671875q1.0781097 -2.4375 3.2812347 -3.65625q2.203125 -1.21875 4.78125 -1.21875q3.265625 0 5.34375 1.65625q2.078125 1.65625 2.671875 4.6875l-3.3125 0.515625q-0.46875 -2.03125 -1.671875 -3.046875q-1.203125 -1.015625 -2.890625 -1.015625q-2.578125 0 -4.1875 1.84375q-1.59375 1.828125 -1.59375 5.8125q0 4.046875 1.546875 5.875q1.546875 1.828125 4.046875 1.828125q2.0 0 3.328125 -1.21875q1.34375 -1.234375 1.703125 -3.78125zm4.984375 -2.671875q0 -5.578125 3.09375 -8.25q2.59375 -2.234375 6.3125 -2.234375q4.125 0 6.75 2.71875q2.625 2.703125 2.625 7.46875q0 3.875 -1.15625 6.09375q-1.15625 2.21875 -3.375 3.453125q-2.21875 1.21875 -4.84375 1.21875q-4.21875 0 -6.8125 -2.6875q-2.59375 -2.703125 -2.59375 -7.78125zm3.5 0q0 3.84375 1.671875 5.765625q1.6875 1.90625 4.234375 1.90625q2.53125 0 4.203125 -1.921875q1.6875 -1.921875 1.6875 -5.875q0 -3.71875 -1.703125 -5.625q-1.6875 -1.921875 -4.1875 -1.921875q-2.546875 0 -4.234375 1.90625q-1.671875 1.90625 -1.671875 5.765625zm32.40503 10.015625l0 -2.9375q-2.34375 3.390625 -6.359375 3.390625q-1.78125 0 -3.328125 -0.671875q-1.53125 -0.6875 -2.28125 -1.71875q-0.734375 -1.03125 -1.03125 -2.515625q-0.21875 -1.0 -0.21875 -3.171875l0 -12.421875l3.40625 0l0 11.125q0 2.65625 0.203125 3.578125q0.328125 1.34375 1.359375 2.109375q1.03125 0.765625 2.5625 0.765625q1.53125 0 2.875 -0.78125q1.34375 -0.796875 1.890625 -2.140625q0.5625 -1.34375 0.5625 -3.921875l0 -10.734375l3.390625 0l0 20.046875l-3.03125 0zm8.358124 0l0 -20.046875l3.0625 0l0 2.859375q2.203125 -3.3125 6.375 -3.3125q1.8125 0 3.328125 0.65625q1.53125 0.640625 2.28125 1.703125q0.75 1.0625 1.0625 2.515625q0.1875 0.9375 0.1875 3.296875l0 12.328125l-3.40625 0l0 -12.1875q0 -2.078125 -0.40625 -3.109375q-0.390625 -1.03125 -1.40625 -1.640625q-1.0 -0.609375 -2.359375 -0.609375q-2.171875 0 -3.75 1.375q-1.5625 1.375 -1.5625 5.21875l0 10.953125l-3.40625 0zm28.920654 -3.03125l0.484375 3.0q-1.4375 0.296875 -2.5625 0.296875q-1.84375 0 -2.875 -0.578125q-1.015625 -0.59375 -1.4375 -1.546875q-0.40625 -0.953125 -0.40625 -4.015625l0 -11.53125l-2.5 0l0 -2.640625l2.5 0l0 -4.96875l3.375 -2.03125l0 7.0l3.421875 0l0 2.640625l-3.421875 0l0 11.71875q0 1.453125 0.171875 1.875q0.1875 0.421875 0.59375 0.671875q0.40625 0.234375 1.15625 0.234375q0.578125 0 1.5 -0.125zm15.120514 3.03125l0 -27.671875l3.65625 0l0 27.671875l-3.65625 0zm10.114929 0l0 -27.671875l9.53125 0q3.21875 0 4.921875 0.390625q2.375 0.546875 4.0625 1.984375q2.1875 1.859375 3.265625 4.734375q1.09375 2.875 1.09375 6.578125q0 3.15625 -0.734375 5.59375q-0.734375 2.421875 -1.890625 4.015625q-1.15625 1.59375 -2.53125 2.515625q-1.359375 0.921875 -3.296875 1.390625q-1.921875 0.46875 -4.4375 0.46875l-9.984375 0zm3.65625 -3.265625l5.90625 0q2.734375 0 4.296875 -0.5q1.5625 -0.515625 2.484375 -1.4375q1.296875 -1.3125 2.015625 -3.5q0.734375 -2.203125 0.734375 -5.34375q0 -4.34375 -1.421875 -6.671875q-1.421875 -2.328125 -3.46875 -3.125q-1.46875 -0.5625 -4.734375 -0.5625l-5.8125 0l0 21.140625z" fill-rule="nonzero"/></g></svg>