<svg
  version="1.1"
  viewBox="0.0 0.0 960.0 720.0"
  fill="none"
  stroke="none"
  stroke-linecap="square"
  stroke-miterlimit="10"
  xmlns:xlink="http://www.w3.org/1999/xlink"
  xmlns="http://www.w3.org/2000/svg"
><clipPath id="p.0"><path
      d="m0 0l960.0 0l0 720.0l-960.0 0l0 -720.0z"
      clip-rule="nonzero"
    /></clipPath><g clip-path="url(#p.0)"><path
      fill="#000000"
      fill-opacity="0.0"
      d="m0 0l960.0 0l0 720.0l-960.0 0z"
      fill-rule="evenodd"
    /><path
      fill="#d9d2e9"
      d="m681.5146 50.440945l0 0c0 -27.857765 18.317505 -50.440945 40.91333 -50.440945l0 0c10.850952 0 21.257385 5.3142986 28.930176 14.77381c7.6727295 9.459512 11.983215 22.289364 11.983215 35.667133l0 0c0 27.857761 -18.317505 50.440945 -40.91339 50.440945l0 0c-22.595825 0 -40.91333 -22.583183 -40.91333 -50.440945z"
      fill-rule="evenodd"
    /><path
      stroke="#000000"
      stroke-width="2.0"
      stroke-linejoin="round"
      stroke-linecap="butt"
      d="m681.5146 50.440945l0 0c0 -27.857765 18.317505 -50.440945 40.91333 -50.440945l0 0c10.850952 0 21.257385 5.3142986 28.930176 14.77381c7.6727295 9.459512 11.983215 22.289364 11.983215 35.667133l0 0c0 27.857761 -18.317505 50.440945 -40.91339 50.440945l0 0c-22.595825 0 -40.91333 -22.583183 -40.91333 -50.440945z"
      fill-rule="evenodd"
    /><path
      fill="#d9d2e9"
      d="m583.98834 241.41054l0 0c7.027527 -26.318329 29.998474 -39.89081 51.307068 -30.314972l0 0c10.232788 4.59848 18.70581 14.029251 23.555176 26.217636c4.849365 12.188385 5.6778564 26.135986 2.3031006 38.774506l0 0c-7.027466 26.318329 -29.998474 39.890778 -51.307068 30.314941l0 0c-21.308655 -9.575836 -32.885803 -38.673798 -25.858276 -64.99211z"
      fill-rule="evenodd"
    /><path
      stroke="#000000"
      stroke-width="2.0"
      stroke-linejoin="round"
      stroke-linecap="butt"
      d="m583.98834 241.41054l0 0c7.027527 -26.318329 29.998474 -39.89081 51.307068 -30.314972l0 0c10.232788 4.59848 18.70581 14.029251 23.555176 26.217636c4.849365 12.188385 5.6778564 26.135986 2.3031006 38.774506l0 0c-7.027466 26.318329 -29.998474 39.890778 -51.307068 30.314941l0 0c-21.308655 -9.575836 -32.885803 -38.673798 -25.858276 -64.99211z"
      fill-rule="evenodd"
    /><path
      fill="#d9d2e9"
      d="m792.3724 282.41843l0 0c-8.688721 -24.865845 1.1398926 -55.592514 21.952759 -68.62991l0 0c9.99469 -6.260788 21.237549 -7.521591 31.255188 -3.505066c10.0177 4.0165253 17.989685 12.981384 22.16211 24.922379l0 0c8.688721 24.86586 -1.1398926 55.592514 -21.952759 68.62993l0 0c-20.812866 13.037384 -44.728577 3.4485474 -53.417297 -21.417328z"
      fill-rule="evenodd"
    /><path
      stroke="#000000"
      stroke-width="2.0"
      stroke-linejoin="round"
      stroke-linecap="butt"
      d="m792.3724 282.41843l0 0c-8.688721 -24.865845 1.1398926 -55.592514 21.952759 -68.62991l0 0c9.99469 -6.260788 21.237549 -7.521591 31.255188 -3.505066c10.0177 4.0165253 17.989685 12.981384 22.16211 24.922379l0 0c8.688721 24.86586 -1.1398926 55.592514 -21.952759 68.62993l0 0c-20.812866 13.037384 -44.728577 3.4485474 -53.417297 -21.417328z"
      fill-rule="evenodd"
    /><path
      fill="#000000"
      fill-opacity="0.0"
      d="m693.4978 86.10808l-58.204712 124.97638"
      fill-rule="evenodd"
    /><path
      stroke="#000000"
      stroke-width="1.0"
      stroke-linejoin="round"
      stroke-linecap="butt"
      d="m693.4978 86.10808l-58.204712 124.97638"
      fill-rule="evenodd"
    /><path
      fill="#000000"
      fill-opacity="0.0"
      d="m751.2986 83.086655l56.629944 130.99213"
      fill-rule="evenodd"
    /><path
      stroke="#000000"
      stroke-width="1.0"
      stroke-linejoin="round"
      stroke-linecap="butt"
      d="m751.2986 83.086655l56.629944 130.99213"
      fill-rule="evenodd"
    /><path
      fill="#d9d2e9"
      d="m497.45145 526.7526l0 0c7.0274963 -26.318298 29.998444 -39.890778 51.3071 -30.314941l0 0c10.232727 4.59848 18.70581 14.029236 23.555176 26.217651c4.849365 12.1883545 5.6777954 26.135986 2.3031006 38.774475l0 0c-7.027527 26.318298 -29.998474 39.89081 -51.30713 30.314941l0 0c-21.308594 -9.575806 -32.885742 -38.673767 -25.858246 -64.99213z"
      fill-rule="evenodd"
    /><path
      stroke="#000000"
      stroke-width="2.0"
      stroke-linejoin="round"
      stroke-linecap="butt"
      d="m497.45145 526.7526l0 0c7.0274963 -26.318298 29.998444 -39.890778 51.3071 -30.314941l0 0c10.232727 4.59848 18.70581 14.029236 23.555176 26.217651c4.849365 12.1883545 5.6777954 26.135986 2.3031006 38.774475l0 0c-7.027527 26.318298 -29.998474 39.89081 -51.30713 30.314941l0 0c-21.308594 -9.575806 -32.885742 -38.673767 -25.858246 -64.99213z"
      fill-rule="evenodd"
    /><path
      fill="#d9d2e9"
      d="m641.0282 551.9344l0 0c-3.1484375 -27.57074 12.405273 -53.418365 34.740173 -57.73227l0 0c10.725586 -2.0715942 21.612549 1.2011719 30.265808 9.098389c8.653198 7.8971863 14.363953 19.771942 15.875916 33.01187l0 0c3.1484375 27.57074 -12.405212 53.418335 -34.740173 57.73224l0 0c-22.3349 4.313965 -42.993286 -14.539429 -46.141724 -42.11023z"
      fill-rule="evenodd"
    /><path
      stroke="#000000"
      stroke-width="2.0"
      stroke-linejoin="round"
      stroke-linecap="butt"
      d="m641.0282 551.9344l0 0c-3.1484375 -27.57074 12.405273 -53.418365 34.740173 -57.73227l0 0c10.725586 -2.0715942 21.612549 1.2011719 30.265808 9.098389c8.653198 7.8971863 14.363953 19.771942 15.875916 33.01187l0 0c3.1484375 27.57074 -12.405212 53.418335 -34.740173 57.73224l0 0c-22.3349 4.313965 -42.993286 -14.539429 -46.141724 -42.11023z"
      fill-rule="evenodd"
    /><path
      fill="#d9d2e9"
      d="m739.8387 531.8598l0 0c4.9662476 -27.109802 26.794983 -43.58008 48.75592 -36.787415l0 0c10.5460205 3.261963 19.712708 11.56192 25.48352 23.073975c5.770813 11.512085 7.6730347 25.293274 5.288147 38.31183l0 0c-4.9661865 27.109802 -26.794983 43.58008 -48.75592 36.787415l0 0c-21.960938 -6.7926636 -35.737854 -34.276062 -30.771667 -61.385803z"
      fill-rule="evenodd"
    /><path
      stroke="#000000"
      stroke-width="2.0"
      stroke-linejoin="round"
      stroke-linecap="butt"
      d="m739.8387 531.8598l0 0c4.9662476 -27.109802 26.794983 -43.58008 48.75592 -36.787415l0 0c10.5460205 3.261963 19.712708 11.56192 25.48352 23.073975c5.770813 11.512085 7.6730347 25.293274 5.288147 38.31183l0 0c-4.9661865 27.109802 -26.794983 43.58008 -48.75592 36.787415l0 0c-21.960938 -6.7926636 -35.737854 -34.276062 -30.771667 -61.385803z"
      fill-rule="evenodd"
    /><path
      fill="#d9d2e9"
      d="m870.10516 526.76306l0 0c7.027527 -26.318329 29.998474 -39.89081 51.30713 -30.314972l0 0c10.232727 4.59848 18.70581 14.029236 23.555176 26.21762c4.849365 12.188416 5.6777954 26.135986 2.3030396 38.774536l0 0c-7.027466 26.318298 -29.998413 39.890747 -51.307068 30.314941l0 0c-21.308594 -9.575867 -32.885742 -38.67383 -25.858276 -64.99213z"
      fill-rule="evenodd"
    /><path
      stroke="#000000"
      stroke-width="2.0"
      stroke-linejoin="round"
      stroke-linecap="butt"
      d="m870.10516 526.76306l0 0c7.027527 -26.318329 29.998474 -39.89081 51.30713 -30.314972l0 0c10.232727 4.59848 18.70581 14.029236 23.555176 26.21762c4.849365 12.188416 5.6777954 26.135986 2.3030396 38.774536l0 0c-7.027466 26.318298 -29.998413 39.890747 -51.307068 30.314941l0 0c-21.308594 -9.575867 -32.885742 -38.67383 -25.858276 -64.99213z"
      fill-rule="evenodd"
    /><path
      fill="#000000"
      fill-opacity="0.0"
      d="m609.8466 306.40265l-61.102356 190.04724"
      fill-rule="evenodd"
    /><path
      stroke="#000000"
      stroke-width="1.0"
      stroke-linejoin="round"
      stroke-linecap="butt"
      d="m609.8466 306.40265l-61.102356 190.04724"
      fill-rule="evenodd"
    /><path
      fill="#000000"
      fill-opacity="0.0"
      d="m640.8556 304.70547l34.897644 189.51181"
      fill-rule="evenodd"
    /><path
      stroke="#000000"
      stroke-width="1.0"
      stroke-linejoin="round"
      stroke-linecap="butt"
      d="m640.8556 304.70547l34.897644 189.51181"
      fill-rule="evenodd"
    /><path
      fill="#000000"
      fill-opacity="0.0"
      d="m814.5345 307.34082l-25.952759 187.71652"
      fill-rule="evenodd"
    /><path
      stroke="#000000"
      stroke-width="1.0"
      stroke-linejoin="round"
      stroke-linecap="butt"
      d="m814.5345 307.34082l-25.952759 187.71652"
      fill-rule="evenodd"
    /><path
      fill="#000000"
      fill-opacity="0.0"
      d="m845.7897 303.83575l44.59845 194.29922"
      fill-rule="evenodd"
    /><path
      stroke="#000000"
      stroke-width="1.0"
      stroke-linejoin="round"
      stroke-linecap="butt"
      d="m845.7897 303.83575l44.59845 194.29922"
      fill-rule="evenodd"
    /><path
      fill="#d9d2e9"
      d="m-0.007863517 393.98666l0 0c0 -11.506653 9.327988 -20.834656 20.834646 -20.834656l247.03937 0l0 0l114.80316 0l55.700775 0c5.525696 0 10.825073 2.1950684 14.73233 6.1023254c3.907257 3.907257 6.1023254 9.2066345 6.1023254 14.73233l0 52.08661l0 0l0 31.251984l0 0c0 11.506653 -9.328003 20.834625 -20.834656 20.834625l-55.700775 0l113.75461 52.67459l-228.55777 -52.67459l-247.03937 0c-11.506658 0 -20.834646 -9.327972 -20.834646 -20.834625l0 0l0 -31.251984l0 0z"
      fill-rule="evenodd"
    /><path
      stroke="#000000"
      stroke-width="1.0"
      stroke-linejoin="round"
      stroke-linecap="butt"
      d="m-0.007863517 393.98666l0 0c0 -11.506653 9.327988 -20.834656 20.834646 -20.834656l247.03937 0l0 0l114.80316 0l55.700775 0c5.525696 0 10.825073 2.1950684 14.73233 6.1023254c3.907257 3.907257 6.1023254 9.2066345 6.1023254 14.73233l0 52.08661l0 0l0 31.251984l0 0c0 11.506653 -9.328003 20.834625 -20.834656 20.834625l-55.700775 0l113.75461 52.67459l-228.55777 -52.67459l-247.03937 0c-11.506658 0 -20.834646 -9.327972 -20.834646 -20.834625l0 0l0 -31.251984l0 0z"
      fill-rule="evenodd"
    /><path
      fill="#000000"
      fill-opacity="0.0"
      d="m533.4258 586.7916l81.82678 0l0 115.33856l-81.82678 0z"
      fill-rule="evenodd"
    /><path
      fill="#d9d2e9"
      d="m495.13766 677.90027l20.456696 -42.11023l40.91339 0l20.456665 42.11023l-20.456665 42.11023l-40.91339 0z"
      fill-rule="evenodd"
    /><path
      stroke="#000000"
      stroke-width="1.0"
      stroke-linejoin="round"
      stroke-linecap="butt"
      d="m495.13766 677.90027l20.456696 -42.11023l40.91339 0l20.456665 42.11023l-20.456665 42.11023l-40.91339 0z"
      fill-rule="evenodd"
    /><path
      fill="#000000"
      d="m537.81635 684.82025l-1.640625 0l0 -10.453125q-0.59375 0.5625 -1.5625 1.140625q-0.953125 0.5625 -1.71875 0.84375l0 -1.59375q1.375 -0.640625 2.40625 -1.5625q1.03125 -0.921875 1.453125 -1.78125l1.0625 0l0 13.40625z"
      fill-rule="nonzero"
    /><path
      fill="#d9d2e9"
      d="m640.54364 677.89655l20.456665 -42.11023l40.91339 0l20.456726 42.11023l-20.456726 42.11023l-40.91339 0z"
      fill-rule="evenodd"
    /><path
      stroke="#000000"
      stroke-width="1.0"
      stroke-linejoin="round"
      stroke-linecap="butt"
      d="m640.54364 677.89655l20.456665 -42.11023l40.91339 0l20.456726 42.11023l-20.456726 42.11023l-40.91339 0z"
      fill-rule="evenodd"
    /><path
      fill="#000000"
      d="m685.6598 683.2384l0 1.578125l-8.828125 0q-0.015625 -0.59375 0.1875 -1.140625q0.34375 -0.90625 1.078125 -1.78125q0.75 -0.875 2.15625 -2.015625q2.171875 -1.78125 2.9375 -2.828125q0.765625 -1.046875 0.765625 -1.96875q0 -0.984375 -0.703125 -1.640625q-0.6875 -0.671875 -1.8125 -0.671875q-1.1875 0 -1.90625 0.71875q-0.703125 0.703125 -0.703125 1.953125l-1.6875 -0.171875q0.171875 -1.890625 1.296875 -2.875q1.140625 -0.984375 3.03125 -0.984375q1.921875 0 3.046875 1.0625q1.125 1.0625 1.125 2.640625q0 0.796875 -0.328125 1.578125q-0.328125 0.78125 -1.09375 1.640625q-0.75 0.84375 -2.53125 2.34375q-1.46875 1.234375 -1.890625 1.6875q-0.421875 0.4375 -0.6875 0.875l6.546875 0z"
      fill-rule="nonzero"
    /><path
      fill="#d9d2e9"
      d="m738.7294 677.90027l20.456726 -42.11023l40.91339 0l20.456665 42.11023l-20.456665 42.11023l-40.91339 0z"
      fill-rule="evenodd"
    /><path
      stroke="#000000"
      stroke-width="1.0"
      stroke-linejoin="round"
      stroke-linecap="butt"
      d="m738.7294 677.90027l20.456726 -42.11023l40.91339 0l20.456665 42.11023l-20.456665 42.11023l-40.91339 0z"
      fill-rule="evenodd"
    /><path
      fill="#000000"
      d="m775.23615 681.289l1.640625 -0.21875q0.28125 1.40625 0.953125 2.015625q0.6875 0.609375 1.65625 0.609375q1.15625 0 1.953125 -0.796875q0.796875 -0.796875 0.796875 -1.984375q0 -1.125 -0.734375 -1.859375q-0.734375 -0.734375 -1.875 -0.734375q-0.46875 0 -1.15625 0.171875l0.1875 -1.4375q0.15625 0.015625 0.265625 0.015625q1.046875 0 1.875 -0.546875q0.84375 -0.546875 0.84375 -1.671875q0 -0.90625 -0.609375 -1.5q-0.609375 -0.59375 -1.578125 -0.59375q-0.953125 0 -1.59375 0.609375q-0.640625 0.59375 -0.8125 1.796875l-1.640625 -0.296875q0.296875 -1.640625 1.359375 -2.546875q1.0625 -0.90625 2.65625 -0.90625q1.09375 0 2.0 0.46875q0.921875 0.46875 1.40625 1.28125q0.5 0.8125 0.5 1.71875q0 0.859375 -0.46875 1.578125q-0.46875 0.703125 -1.375 1.125q1.1875 0.28125 1.84375 1.140625q0.65625 0.859375 0.65625 2.15625q0 1.734375 -1.28125 2.953125q-1.265625 1.21875 -3.21875 1.21875q-1.765625 0 -2.921875 -1.046875q-1.15625 -1.046875 -1.328125 -2.71875z"
      fill-rule="nonzero"
    /><path
      fill="#d9d2e9"
      d="m867.7935 677.90027l20.456665 -42.11023l40.91339 0l20.456726 42.11023l-20.456726 42.11023l-40.91339 0z"
      fill-rule="evenodd"
    /><path
      stroke="#000000"
      stroke-width="1.0"
      stroke-linejoin="round"
      stroke-linecap="butt"
      d="m867.7935 677.90027l20.456665 -42.11023l40.91339 0l20.456726 42.11023l-20.456726 42.11023l-40.91339 0z"
      fill-rule="evenodd"
    /><path
      fill="#000000"
      d="m909.5503 684.82025l0 -3.203125l-5.796875 0l0 -1.5l6.09375 -8.65625l1.34375 0l0 8.65625l1.796875 0l0 1.5l-1.796875 0l0 3.203125l-1.640625 0zm0 -4.703125l0 -6.015625l-4.1875 6.015625l4.1875 0z"
      fill-rule="nonzero"
    /><path
      fill="#d9d2e9"
      d="m165.59975 669.8248l241.03935 0l0 -8.078735l16.157501 16.15747l-16.157501 16.15747l0 -8.078735l-241.03935 0z"
      fill-rule="evenodd"
    /><path
      stroke="#000000"
      stroke-width="1.0"
      stroke-linejoin="round"
      stroke-linecap="butt"
      d="m165.59975 669.8248l241.03935 0l0 -8.078735l16.157501 16.15747l-16.157501 16.15747l0 -8.078735l-241.03935 0z"
      fill-rule="evenodd"
    /><path
      fill="#000000"
      fill-opacity="0.0"
      d="m203.4635 601.82117l233.25983 0l0 32.31494l-233.25983 0z"
      fill-rule="evenodd"
    /><path
      fill="#000000"
      d="m214.026 636.1324l3.09375 -0.265625q0.21875 1.859375 1.015625 3.046875q0.8125 1.1875 2.5 1.9375q1.6875 0.734375 3.8125 0.734375q1.875 0 3.3125 -0.5625q1.4375 -0.5625 2.140625 -1.53125q0.703125 -0.96875 0.703125 -2.125q0 -1.171875 -0.6875 -2.03125q-0.671875 -0.875 -2.21875 -1.46875q-1.0 -0.390625 -4.421875 -1.203125q-3.421875 -0.828125 -4.78125 -1.5625q-1.78125 -0.921875 -2.65625 -2.296875q-0.875 -1.390625 -0.875 -3.09375q0 -1.875 1.0625 -3.5q1.078125 -1.640625 3.125 -2.484375q2.046875 -0.859375 4.546875 -0.859375q2.765625 0 4.859375 0.890625q2.109375 0.890625 3.234375 2.625q1.140625 1.71875 1.234375 3.90625l-3.15625 0.234375q-0.25 -2.359375 -1.71875 -3.5625q-1.453125 -1.203125 -4.3125 -1.203125q-2.984375 0 -4.34375 1.09375q-1.359375 1.09375 -1.359375 2.640625q0 1.328125 0.96875 2.1875q0.9375 0.875 4.9375 1.78125q4.0 0.90625 5.5 1.578125q2.15625 1.0 3.1875 2.53125q1.046875 1.53125 1.046875 3.53125q0 1.96875 -1.140625 3.734375q-1.140625 1.75 -3.265625 2.71875q-2.109375 0.96875 -4.765625 0.96875q-3.375 0 -5.65625 -0.984375q-2.265625 -0.984375 -3.5625 -2.953125q-1.296875 -1.96875 -1.359375 -4.453125zm30.490448 5.25l0.4375 2.6875q-1.28125 0.265625 -2.296875 0.265625q-1.65625 0 -2.578125 -0.515625q-0.90625 -0.53125 -1.28125 -1.375q-0.375 -0.859375 -0.375 -3.609375l0 -10.34375l-2.234375 0l0 -2.359375l2.234375 0l0 -4.453125l3.03125 -1.828125l0 6.28125l3.0625 0l0 2.359375l-3.0625 0l0 10.515625q0 1.296875 0.15625 1.671875q0.15625 0.375 0.515625 0.59375q0.375 0.21875 1.046875 0.21875q0.515625 0 1.34375 -0.109375zm14.706726 0.5q-1.703125 1.4375 -3.2656097 2.03125q-1.5625 0.59375 -3.359375 0.59375q-2.953125 0 -4.546875 -1.4375q-1.59375 -1.453125 -1.59375 -3.703125q0 -1.328125 0.59375 -2.40625q0.609375 -1.09375 1.578125 -1.75q0.984375 -0.671875 2.203125 -1.015625q0.890625 -0.234375 2.703125 -0.453125q3.6874847 -0.4375 5.4218597 -1.046875q0.03125 -0.625 0.03125 -0.796875q0 -1.859375 -0.875 -2.625q-1.15625 -1.03125 -3.4687347 -1.03125q-2.140625 0 -3.171875 0.765625q-1.015625 0.75 -1.515625 2.65625l-2.96875 -0.40625q0.40625 -1.90625 1.328125 -3.078125q0.9375 -1.1875 2.6875 -1.8125q1.765625 -0.640625 4.078125 -0.640625q2.3124847 0 3.7499847 0.546875q1.4375 0.53125 2.109375 1.359375q0.6875 0.8125 0.953125 2.0625q0.15625 0.78125 0.15625 2.8125l0 4.0625q0 4.25 0.1875 5.375q0.203125 1.125 0.765625 2.15625l-3.171875 0q-0.484375 -0.953125 -0.609375 -2.21875zm-0.265625 -6.796875q-1.65625 0.671875 -4.9687347 1.140625q-1.875 0.28125 -2.65625 0.625q-0.78125 0.328125 -1.203125 0.984375q-0.421875 0.640625 -0.421875 1.4375q0 1.21875 0.921875 2.03125q0.921875 0.8125 2.703125 0.8125q1.75 0 3.1249847 -0.765625q1.375 -0.765625 2.015625 -2.109375q0.484375 -1.03125 0.484375 -3.046875l0 -1.109375zm14.46167 6.296875l0.4375 2.6875q-1.28125 0.265625 -2.296875 0.265625q-1.65625 0 -2.578125 -0.515625q-0.90625 -0.53125 -1.28125 -1.375q-0.375 -0.859375 -0.375 -3.609375l0 -10.34375l-2.234375 0l0 -2.359375l2.234375 0l0 -4.453125l3.03125 -1.828125l0 6.28125l3.0625 0l0 2.359375l-3.0625 0l0 10.515625q0 1.296875 0.15625 1.671875q0.15625 0.375 0.515625 0.59375q0.375 0.21875 1.046875 0.21875q0.515625 0 1.34375 -0.109375zm15.284851 -3.0625l3.140625 0.390625q-0.75 2.75 -2.765625 4.28125q-2.0 1.515625 -5.140625 1.515625q-3.9375 0 -6.25 -2.421875q-2.3125 -2.4375 -2.3125 -6.8125q0 -4.546875 2.328125 -7.046875q2.34375 -2.5 6.0625 -2.5q3.609375 0 5.890625 2.453125q2.28125 2.453125 2.28125 6.90625q0 0.265625 -0.015625 0.8125l-13.390625 0q0.15625 2.953125 1.65625 4.53125q1.515625 1.578125 3.765625 1.578125q1.6875 0 2.859375 -0.875q1.1875 -0.890625 1.890625 -2.8125zm-10.015625 -4.9375l10.046875 0q-0.203125 -2.265625 -1.15625 -3.390625q-1.453125 -1.765625 -3.765625 -1.765625q-2.109375 0 -3.546875 1.40625q-1.421875 1.40625 -1.578125 3.75zm27.559021 10.71875l0 -24.8125l3.28125 0l0 24.8125l-3.28125 0zm9.066132 0l0 -24.8125l8.546875 0q2.890625 0 4.421875 0.359375q2.125 0.484375 3.640625 1.78125q1.953125 1.65625 2.921875 4.234375q0.984375 2.578125 0.984375 5.890625q0 2.828125 -0.671875 5.015625q-0.65625 2.1875 -1.6875 3.625q-1.03125 1.421875 -2.265625 2.25q-1.21875 0.8125 -2.953125 1.234375q-1.734375 0.421875 -3.984375 0.421875l-8.953125 0zm3.28125 -2.921875l5.296875 0q2.453125 0 3.84375 -0.453125q1.40625 -0.46875 2.234375 -1.296875q1.171875 -1.171875 1.8125 -3.140625q0.65625 -1.96875 0.65625 -4.78125q0 -3.890625 -1.28125 -5.96875q-1.265625 -2.09375 -3.09375 -2.8125q-1.328125 -0.5 -4.25 -0.5l-5.21875 0l0 18.953125z"
      fill-rule="nonzero"
    /><path
      fill="#000000"
      fill-opacity="0.0"
      d="m65.63861 459.82587l0 0c-14.350704 0 -25.98425 -0.9694214 -25.98425 -2.1652527l0 -50.976562l0 0c0 -0.5742798 2.7376175 -1.125 7.610611 -1.5310669c4.8729897 -0.4060669 11.482189 -0.6342163 18.373638 -0.6342163z"
      fill-rule="evenodd"
    /><path
      fill="#000000"
      fill-opacity="0.0"
      d="m65.63861 459.82587l0 0c-14.350704 0 -25.98425 -0.9694214 -25.98425 -2.1652527l0 -50.976562l0 0c0 -0.5742798 2.7376175 -1.125 7.610611 -1.5310669c4.8729897 -0.4060669 11.482189 -0.6342163 18.373638 -0.6342163"
      fill-rule="evenodd"
    /><path
      stroke="#000000"
      stroke-width="1.0"
      stroke-linejoin="round"
      stroke-linecap="butt"
      d="m65.63861 459.82587l0 0c-14.350704 0 -25.98425 -0.9694214 -25.98425 -2.1652527l0 -50.976562l0 0c0 -0.5742798 2.7376175 -1.125 7.610611 -1.5310669c4.8729897 -0.4060669 11.482189 -0.6342163 18.373638 -0.6342163"
      fill-rule="evenodd"
    /><path
      fill="#000000"
      fill-opacity="0.0"
      d="m403.12894 404.59366l0 0c14.350708 0 25.984253 0.9694214 25.984253 2.1652527l0 50.976562c0 1.1958313 -11.633545 2.1652527 -25.984253 2.1652527z"
      fill-rule="evenodd"
    /><path
      fill="#000000"
      fill-opacity="0.0"
      d="m403.12894 404.59366l0 0c14.350708 0 25.984253 0.9694214 25.984253 2.1652527l0 50.976562c0 1.1958313 -11.633545 2.1652527 -25.984253 2.1652527"
      fill-rule="evenodd"
    /><path
      stroke="#000000"
      stroke-width="1.0"
      stroke-linejoin="round"
      stroke-linecap="butt"
      d="m403.12894 404.59366l0 0c14.350708 0 25.984253 0.9694214 25.984253 2.1652527l0 50.976562c0 1.1958313 -11.633545 2.1652527 -25.984253 2.1652527"
      fill-rule="evenodd"
    /><path
      fill="#000000"
      fill-opacity="0.0"
      d="m88.013504 373.1494l47.842514 0l0 83.590576l-47.842514 0z"
      fill-rule="evenodd"
    /><path
      fill="#d9ead3"
      d="m74.623314 435.6264l11.960632 -30.472412l23.921265 0l11.960625 30.472412l-11.960625 30.472443l-23.921265 0z"
      fill-rule="evenodd"
    /><path
      stroke="#000000"
      stroke-width="1.0"
      stroke-linejoin="round"
      stroke-linecap="butt"
      d="m74.623314 435.6264l11.960632 -30.472412l23.921265 0l11.960625 30.472412l-11.960625 30.472443l-23.921265 0z"
      fill-rule="evenodd"
    /><path
      fill="#000000"
      d="m100.309845 442.54642l-1.640625 0l0 -10.453125q-0.59375 0.5625 -1.5625 1.140625q-0.953125 0.5625 -1.71875 0.84375l0 -1.59375q1.375 -0.640625 2.40625 -1.5625q1.03125 -0.921875 1.453125 -1.78125l1.0625 0l0 13.40625z"
      fill-rule="nonzero"
    /><path
      fill="#ead1dc"
      d="m139.71428 411.90967l0 0c0 -5.6098022 4.5476685 -10.157471 10.157486 -10.157471l225.85828 0c2.6939087 0 5.277527 1.0701599 7.1824036 2.9750671c1.9049072 1.9049072 2.9750671 4.488495 2.9750671 7.1824036l0 40.629944c0 5.6098022 -4.5476685 10.157471 -10.157471 10.157471l-225.85828 0c-5.6098175 0 -10.157486 -4.5476685 -10.157486 -10.157471z"
      fill-rule="evenodd"
    /><path
      stroke="#000000"
      stroke-width="1.0"
      stroke-linejoin="round"
      stroke-linecap="butt"
      d="m139.71428 411.90967l0 0c0 -5.6098022 4.5476685 -10.157471 10.157486 -10.157471l225.85828 0c2.6939087 0 5.277527 1.0701599 7.1824036 2.9750671c1.9049072 1.9049072 2.9750671 4.488495 2.9750671 7.1824036l0 40.629944c0 5.6098022 -4.5476685 10.157471 -10.157471 10.157471l-225.85828 0c-5.6098175 0 -10.157486 -4.5476685 -10.157486 -10.157471z"
      fill-rule="evenodd"
    /><path
      fill="#000000"
      d="m152.70493 435.28152l2.03125 -0.1875q0.140625 1.21875 0.65625 2.0q0.53125 0.78125 1.640625 1.265625q1.109375 0.484375 2.484375 0.484375q1.234375 0 2.171875 -0.359375q0.9375 -0.375 1.390625 -1.015625q0.46875 -0.640625 0.46875 -1.390625q0 -0.765625 -0.453125 -1.328125q-0.4375 -0.578125 -1.453125 -0.953125q-0.65625 -0.265625 -2.890625 -0.796875q-2.234375 -0.53125 -3.125 -1.015625q-1.15625 -0.609375 -1.734375 -1.5q-0.5625 -0.90625 -0.5625 -2.03125q0 -1.21875 0.6875 -2.28125q0.703125 -1.078125 2.03125 -1.625q1.34375 -0.5625 2.984375 -0.5625q1.8125 0 3.1875 0.59375q1.375 0.578125 2.109375 1.703125q0.75 1.125 0.796875 2.546875l-2.046875 0.15625q-0.171875 -1.53125 -1.140625 -2.3125q-0.953125 -0.796875 -2.8125 -0.796875q-1.953125 0 -2.84375 0.71875q-0.890625 0.71875 -0.890625 1.71875q0 0.875 0.640625 1.4375q0.609375 0.5625 3.21875 1.15625q2.625 0.59375 3.59375 1.03125q1.421875 0.65625 2.09375 1.65625q0.671875 1.0 0.671875 2.3125q0 1.296875 -0.734375 2.4375q-0.734375 1.140625 -2.125 1.78125q-1.390625 0.640625 -3.125 0.640625q-2.203125 0 -3.703125 -0.640625q-1.484375 -0.640625 -2.328125 -1.921875q-0.84375 -1.296875 -0.890625 -2.921875zm19.939667 3.421875l0.28125 1.765625q-0.84375 0.171875 -1.5 0.171875q-1.078125 0 -1.6875 -0.34375q-0.59375 -0.34375 -0.84375 -0.890625q-0.234375 -0.5625 -0.234375 -2.359375l0 -6.765625l-1.46875 0l0 -1.546875l1.46875 0l0 -2.90625l1.984375 -1.203125l0 4.109375l2.0 0l0 1.546875l-2.0 0l0 6.875q0 0.84375 0.09375 1.09375q0.109375 0.25 0.34375 0.390625q0.25 0.140625 0.6875 0.140625q0.328125 0 0.875 -0.078125zm9.607132 0.328125q-1.109375 0.9375 -2.140625 1.328125q-1.015625 0.390625 -2.1875 0.390625q-1.9375 0 -2.984375 -0.9375q-1.03125 -0.953125 -1.03125 -2.421875q0 -0.859375 0.390625 -1.578125q0.40625 -0.71875 1.03125 -1.140625q0.640625 -0.4375 1.4375 -0.65625q0.59375 -0.15625 1.765625 -0.296875q2.421875 -0.296875 3.5625 -0.6875q0 -0.40625 0 -0.515625q0 -1.21875 -0.5625 -1.71875q-0.765625 -0.671875 -2.265625 -0.671875q-1.40625 0 -2.078125 0.5q-0.671875 0.484375 -0.984375 1.734375l-1.953125 -0.265625q0.265625 -1.25 0.875 -2.015625q0.609375 -0.78125 1.75 -1.1875q1.15625 -0.421875 2.671875 -0.421875q1.515625 0 2.453125 0.359375q0.9375 0.34375 1.375 0.890625q0.453125 0.53125 0.625 1.34375q0.09375 0.515625 0.09375 1.84375l0 2.65625q0 2.78125 0.125 3.515625q0.140625 0.734375 0.515625 1.40625l-2.078125 0q-0.3125 -0.625 -0.40625 -1.453125zm-0.15625 -4.4375q-1.09375 0.4375 -3.265625 0.75q-1.21875 0.171875 -1.734375 0.390625q-0.5 0.21875 -0.78125 0.65625q-0.28125 0.421875 -0.28125 0.9375q0 0.796875 0.609375 1.328125q0.609375 0.53125 1.765625 0.53125q1.140625 0 2.03125 -0.5q0.90625 -0.5 1.328125 -1.375q0.328125 -0.671875 0.328125 -2.0l0 -0.71875zm9.444077 4.109375l0.28125 1.765625q-0.84375 0.171875 -1.5 0.171875q-1.078125 0 -1.6875 -0.34375q-0.59375 -0.34375 -0.84375 -0.890625q-0.234375 -0.5625 -0.234375 -2.359375l0 -6.765625l-1.46875 0l0 -1.546875l1.46875 0l0 -2.90625l1.984375 -1.203125l0 4.109375l2.0 0l0 1.546875l-2.0 0l0 6.875q0 0.84375 0.09375 1.09375q0.109375 0.25 0.34375 0.390625q0.25 0.140625 0.6875 0.140625q0.328125 0 0.875 -0.078125zm9.982132 -2.0l2.0625 0.25q-0.484375 1.8125 -1.8125 2.8125q-1.3125 0.984375 -3.359375 0.984375q-2.578125 0 -4.09375 -1.578125q-1.5 -1.59375 -1.5 -4.46875q0 -2.953125 1.53125 -4.59375q1.53125 -1.640625 3.953125 -1.640625q2.359375 0 3.84375 1.609375q1.5 1.59375 1.5 4.515625q0 0.171875 0 0.53125l-8.765625 0q0.109375 1.9375 1.09375 2.96875q0.984375 1.015625 2.453125 1.015625q1.09375 0 1.859375 -0.5625q0.78125 -0.578125 1.234375 -1.84375zm-6.53125 -3.21875l6.5625 0q-0.140625 -1.484375 -0.75 -2.21875q-0.953125 -1.15625 -2.46875 -1.15625q-1.375 0 -2.3125 0.921875q-0.9375 0.90625 -1.03125 2.453125zm16.644958 1.125q0 -3.265625 1.8125 -4.828125q1.515625 -1.3125 3.703125 -1.3125q2.421875 0 3.953125 1.59375q1.546875 1.578125 1.546875 4.375q0 2.28125 -0.6875 3.578125q-0.671875 1.296875 -1.984375 2.015625q-1.296875 0.71875 -2.828125 0.71875q-2.46875 0 -4.0 -1.578125q-1.515625 -1.578125 -1.515625 -4.5625zm2.046875 0q0 2.25 0.984375 3.375q0.984375 1.125 2.484375 1.125q1.484375 0 2.46875 -1.125q0.984375 -1.125 0.984375 -3.4375q0 -2.1875 -1.0 -3.296875q-0.984375 -1.125 -2.453125 -1.125q-1.5 0 -2.484375 1.125q-0.984375 1.109375 -0.984375 3.359375zm11.772202 5.875l0 -10.203125l-1.765625 0l0 -1.546875l1.765625 0l0 -1.25q0 -1.1875 0.203125 -1.75q0.296875 -0.78125 1.015625 -1.265625q0.734375 -0.484375 2.03125 -0.484375q0.84375 0 1.859375 0.203125l-0.296875 1.734375q-0.625 -0.109375 -1.171875 -0.109375q-0.90625 0 -1.28125 0.390625q-0.375 0.390625 -0.375 1.453125l0 1.078125l2.28125 0l0 1.546875l-2.28125 0l0 10.203125l-1.984375 0zm19.808014 0l0 -1.71875q-1.359375 1.984375 -3.71875 1.984375q-1.046875 0 -1.953125 -0.390625q-0.890625 -0.40625 -1.328125 -1.0q-0.4375 -0.609375 -0.609375 -1.484375q-0.125 -0.59375 -0.125 -1.859375l0 -7.28125l1.984375 0l0 6.515625q0 1.5625 0.125 2.109375q0.1875 0.78125 0.796875 1.234375q0.609375 0.4375 1.5 0.4375q0.90625 0 1.6875 -0.453125q0.78125 -0.46875 1.109375 -1.25q0.328125 -0.796875 0.328125 -2.296875l0 -6.296875l1.984375 0l0 11.75l-1.78125 0zm4.1159515 -3.5l1.96875 -0.3125q0.15625 1.171875 0.90625 1.8125q0.765625 0.625 2.125 0.625q1.375 0 2.0312653 -0.546875q0.671875 -0.5625 0.671875 -1.3125q0 -0.6875 -0.578125 -1.0625q-0.421875 -0.265625 -2.0468903 -0.6875q-2.1875 -0.546875 -3.03125 -0.953125q-0.84375 -0.40625 -1.28125 -1.109375q-0.4375 -0.71875 -0.4375 -1.578125q0 -0.796875 0.359375 -1.453125q0.359375 -0.671875 0.984375 -1.125q0.453125 -0.328125 1.25 -0.5625q0.8125 -0.25 1.734375 -0.25q1.375 0 2.4218903 0.40625q1.046875 0.390625 1.546875 1.078125q0.5 0.671875 0.6875 1.8125l-1.953125 0.265625q-0.125 -0.90625 -0.76564026 -1.40625q-0.640625 -0.515625 -1.796875 -0.515625q-1.375 0 -1.96875 0.453125q-0.578125 0.453125 -0.578125 1.0625q0 0.390625 0.25 0.6875q0.234375 0.328125 0.75 0.53125q0.3125 0.125 1.765625 0.515625q2.1093903 0.5625 2.9375153 0.921875q0.84375 0.359375 1.3125 1.046875q0.484375 0.6875 0.484375 1.703125q0 1.0 -0.578125 1.875q-0.578125 0.875 -1.671875 1.359375q-1.0937653 0.484375 -2.4843903 0.484375q-2.296875 0 -3.5 -0.953125q-1.1875 -0.953125 -1.515625 -2.8125zm20.156265 -0.28125l2.0625 0.25q-0.484375 1.8125 -1.8125 2.8125q-1.3125 0.984375 -3.359375 0.984375q-2.578125 0 -4.09375 -1.578125q-1.5 -1.59375 -1.5 -4.46875q0 -2.953125 1.53125 -4.59375q1.53125 -1.640625 3.953125 -1.640625q2.359375 0 3.84375 1.609375q1.5 1.59375 1.5 4.515625q0 0.171875 0 0.53125l-8.765625 0q0.109375 1.9375 1.09375 2.96875q0.984375 1.015625 2.453125 1.015625q1.09375 0 1.859375 -0.5625q0.78125 -0.578125 1.234375 -1.84375zm-6.53125 -3.21875l6.5625 0q-0.140625 -1.484375 -0.75 -2.21875q-0.953125 -1.15625 -2.46875 -1.15625q-1.375 0 -2.3125 0.921875q-0.9375 0.90625 -1.03125 2.453125zm11.069061 7.0l0 -11.75l1.796875 0l0 1.78125q0.6875 -1.25 1.265625 -1.640625q0.578125 -0.40625 1.28125 -0.40625q1.0 0 2.046875 0.640625l-0.6875 1.84375q-0.734375 -0.421875 -1.46875 -0.421875q-0.640625 0 -1.171875 0.390625q-0.515625 0.390625 -0.734375 1.09375q-0.328125 1.0625 -0.328125 2.3125l0 6.15625l-2.0 0zm21.526855 -1.453125q-1.109375 0.9375 -2.140625 1.328125q-1.015625 0.390625 -2.1875 0.390625q-1.9375 0 -2.984375 -0.9375q-1.03125 -0.953125 -1.03125 -2.421875q0 -0.859375 0.390625 -1.578125q0.40625 -0.71875 1.03125 -1.140625q0.640625 -0.4375 1.4375 -0.65625q0.59375 -0.15625 1.765625 -0.296875q2.421875 -0.296875 3.5625 -0.6875q0 -0.40625 0 -0.515625q0 -1.21875 -0.5625 -1.71875q-0.765625 -0.671875 -2.265625 -0.671875q-1.40625 0 -2.078125 0.5q-0.671875 0.484375 -0.984375 1.734375l-1.953125 -0.265625q0.265625 -1.25 0.875 -2.015625q0.609375 -0.78125 1.75 -1.1875q1.15625 -0.421875 2.671875 -0.421875q1.515625 0 2.453125 0.359375q0.9375 0.34375 1.375 0.890625q0.453125 0.53125 0.625 1.34375q0.09375 0.515625 0.09375 1.84375l0 2.65625q0 2.78125 0.125 3.515625q0.140625 0.734375 0.515625 1.40625l-2.078125 0q-0.3125 -0.625 -0.40625 -1.453125zm-0.15625 -4.4375q-1.09375 0.4375 -3.265625 0.75q-1.21875 0.171875 -1.734375 0.390625q-0.5 0.21875 -0.78125 0.65625q-0.28125 0.421875 -0.28125 0.9375q0 0.796875 0.609375 1.328125q0.609375 0.53125 1.765625 0.53125q1.140625 0 2.03125 -0.5q0.90625 -0.5 1.328125 -1.375q0.328125 -0.671875 0.328125 -2.0l0 -0.71875zm12.756561 1.59375l1.96875 0.25q-0.328125 2.015625 -1.65625 3.171875q-1.3125 1.140625 -3.234375 1.140625q-2.421875 0 -3.890625 -1.578125q-1.453125 -1.578125 -1.453125 -4.515625q0 -1.90625 0.625 -3.328125q0.625 -1.4375 1.90625 -2.140625q1.296875 -0.71875 2.8125 -0.71875q1.921875 0 3.140625 0.96875q1.21875 0.96875 1.5625 2.75l-1.9375 0.296875q-0.28125 -1.1875 -0.984375 -1.78125q-0.703125 -0.59375 -1.703125 -0.59375q-1.5 0 -2.4375 1.078125q-0.9375 1.078125 -0.9375 3.40625q0 2.375 0.90625 3.453125q0.90625 1.0625 2.359375 1.0625q1.171875 0 1.953125 -0.71875q0.796875 -0.71875 1.0 -2.203125zm11.328125 0l1.96875 0.25q-0.328125 2.015625 -1.65625 3.171875q-1.3125 1.140625 -3.234375 1.140625q-2.421875 0 -3.890625 -1.578125q-1.453125 -1.578125 -1.453125 -4.515625q0 -1.90625 0.625 -3.328125q0.625 -1.4375 1.90625 -2.140625q1.296875 -0.71875 2.8125 -0.71875q1.921875 0 3.140625 0.96875q1.21875 0.96875 1.5625 2.75l-1.9375 0.296875q-0.28125 -1.1875 -0.984375 -1.78125q-0.703125 -0.59375 -1.703125 -0.59375q-1.5 0 -2.4375 1.078125q-0.9375 1.078125 -0.9375 3.40625q0 2.375 0.90625 3.453125q0.90625 1.0625 2.359375 1.0625q1.171875 0 1.953125 -0.71875q0.796875 -0.71875 1.0 -2.203125zm2.921875 -1.578125q0 -3.265625 1.8125 -4.828125q1.515625 -1.3125 3.703125 -1.3125q2.421875 0 3.953125 1.59375q1.546875 1.578125 1.546875 4.375q0 2.28125 -0.6875 3.578125q-0.671875 1.296875 -1.984375 2.015625q-1.296875 0.71875 -2.828125 0.71875q-2.46875 0 -4.0 -1.578125q-1.515625 -1.578125 -1.515625 -4.5625zm2.046875 0q0 2.25 0.984375 3.375q0.984375 1.125 2.484375 1.125q1.484375 0 2.46875 -1.125q0.984375 -1.125 0.984375 -3.4375q0 -2.1875 -1.0 -3.296875q-0.984375 -1.125 -2.453125 -1.125q-1.5 0 -2.484375 1.125q-0.984375 1.109375 -0.984375 3.359375zm18.990967 5.875l0 -1.71875q-1.359375 1.984375 -3.71875 1.984375q-1.046875 0 -1.953125 -0.390625q-0.890625 -0.40625 -1.328125 -1.0q-0.4375 -0.609375 -0.609375 -1.484375q-0.125 -0.59375 -0.125 -1.859375l0 -7.28125l1.984375 0l0 6.515625q0 1.5625 0.125 2.109375q0.1875 0.78125 0.796875 1.234375q0.609375 0.4375 1.5 0.4375q0.90625 0 1.6875 -0.453125q0.78125 -0.46875 1.109375 -1.25q0.328125 -0.796875 0.328125 -2.296875l0 -6.296875l1.984375 0l0 11.75l-1.78125 0zm4.9128113 0l0 -11.75l1.78125 0l0 1.671875q1.296875 -1.9375 3.75 -1.9375q1.0625 0 1.953125 0.390625q0.890625 0.375 1.328125 1.0q0.4375 0.609375 0.625 1.46875q0.109375 0.546875 0.109375 1.9375l0 7.21875l-2.0 0l0 -7.140625q0 -1.21875 -0.234375 -1.8125q-0.234375 -0.609375 -0.828125 -0.96875q-0.578125 -0.359375 -1.375 -0.359375q-1.28125 0 -2.203125 0.8125q-0.921875 0.796875 -0.921875 3.046875l0 6.421875l-1.984375 0zm16.944092 -1.78125l0.28125 1.765625q-0.84375 0.171875 -1.5 0.171875q-1.078125 0 -1.6875 -0.34375q-0.59375 -0.34375 -0.84375 -0.890625q-0.234375 -0.5625 -0.234375 -2.359375l0 -6.765625l-1.46875 0l0 -1.546875l1.46875 0l0 -2.90625l1.984375 -1.203125l0 4.109375l2.0 0l0 1.546875l-2.0 0l0 6.875q0 0.84375 0.09375 1.09375q0.109375 0.25 0.34375 0.390625q0.25 0.140625 0.6875 0.140625q0.328125 0 0.875 -0.078125z"
      fill-rule="nonzero"
    /></g></svg>
